<?xml version="1.0" encoding="UTF-8"?><svg id="Layer_17" xmlns="http://www.w3.org/2000/svg" viewBox="0 0 580.41 576"><defs><style>.cls-1{fill:#fffccc;}</style></defs><g id="sushi_outline"><path class="cls-1" d="M146.68,72.82c-19.11,26.57-37.78,53.45-56,80.64-4.71,7.03-10.06,14.05-12.39,22.33-3.19,11.36-.62,23.93,7.64,32.55,9.34,9.75,24.22,11.43,35.92,5.05,7.27-3.96,13.5-10.41,19.86-15.71,5.22-4.34,10.47-8.64,15.77-12.88,2.65-2.13,5.32-4.24,8-6.33,1.34-1.05,2.67-2.1,4.03-3.14-4.72,3.6,1.33-1,2.2-1.66,10.84-8.23,21.88-16.2,33.15-23.83,22.85-15.46,46.69-29.52,71.66-41.27,3.54-1.67,7.11-3.28,10.69-4.85.96-.42,6.17-2.82.79-.37,2.03-.92,4.13-1.71,6.2-2.53,7.26-2.89,14.6-5.57,22.02-8.01,14.9-4.9,30.1-8.78,45.52-11.63-8.47-11.02-16.94-22.03-25.41-33.05-1.84,3.06-3.76,6.06-5.81,8.98-.94,1.34-1.94,2.65-2.89,3.98-1.82,2.56,2.52-3.08.52-.66-.7.84-1.37,1.7-2.06,2.54-4.71,5.7-9.76,11.11-15.01,16.32-10.61,10.52-22.01,20.2-33.31,29.96-22.93,19.8-45.52,40.92-60.64,67.56-9.52,16.77-15.13,34.71-16.71,53.9-.87,10.51,7.74,18.3,16.52,21.7,21.53,8.32,43.34-9.51,59.97-21.09,14.24-9.92,28.05-20.44,41.86-30.95,27.49-20.94,55.11-42.16,85.8-58.29,4.14-2.17,8.32-4.25,12.56-6.21.94-.43,1.89-.86,2.83-1.29.68-.3,4.81-2.22,1.59-.73-2.97,1.38.14-.05.9-.36,1.2-.49,2.41-.97,3.62-1.43,9.27-3.58,18.76-6.5,28.43-8.77-7.3-12.54-14.59-25.07-21.89-37.61-26.11,28.22-52.25,56.46-76.81,86.06-24.97,30.08-49.74,61.15-53.2,101.55-1.45,16.95,20.22,28.15,33.86,19.43,26.48-16.93,52.87-34.03,79.48-50.77,12.76-8.02,25.7-15.81,39.15-22.61,3.33-1.68,6.7-3.25,10.07-4.85,3.87-1.83-2.24.7.37-.15,1.7-.55,3.35-1.24,5.06-1.77s3.4-.99,5.14-1.36c.86-.2,1.72-.36,2.58-.49-2.83.35-3.39.47-1.68.35.68.05,6.54.09,2.98-.17s2.83.92,3.67,1.22c-4.48-11.02-8.96-22.03-13.45-33.05-.07.1-3.13,4.6-1.39,1.91s-1.08,1.29-1.5,1.81c-1.85,2.24-3.76,4.43-5.7,6.59-4.08,4.55-8.33,8.95-12.59,13.33-8.27,8.5-16.67,16.92-24.1,26.17-16.86,20.99-30.19,45.52-29.52,73.23.28,11.76,10.15,23.05,22.5,22.5s22.8-9.89,22.5-22.5c-.04-1.58-.76-7.08.25-8.23-1.05,1.19-.75,4.36.01.31.25-1.34.54-2.67.87-4,.59-2.39,1.32-4.75,2.14-7.07.94-2.65.74-2.6-.15,0,.44-1.29,1.14-2.55,1.74-3.77,2.32-4.77,5.03-9.35,8.01-13.75.79-1.16,1.59-2.31,2.41-3.44,1.54-2.13,1.61-2.48.02-.14,1.56-2.29,3.56-4.4,5.37-6.49,15.8-18.23,33.69-34.18,47.98-53.75,4.13-5.65,3.69-13.97,1.13-20.02-2.83-6.7-7.79-10.64-14.58-13.03-18.79-6.6-38.15.04-55.26,8.06-14.51,6.8-28.37,14.89-41.97,23.33-28.31,17.57-56.21,35.82-84.28,53.77,11.29,6.48,22.57,12.95,33.86,19.43.08-1.12.19-2.24.32-3.36-.45,3.21-.46,3.54-.05,1.01.44-1.9.78-3.81,1.26-5.7.97-3.76,1.92-8.51,3.94-11.87l-.96,2.29c.45-1.03.92-2.04,1.4-3.06.97-2.03,1.99-4.04,3.06-6.02,1.89-3.49,3.94-6.9,6.08-10.24s4.44-6.66,6.78-9.89c1.34-1.85,2.72-3.67,4.09-5.51,2.81-3.76-2.53,3.13.67-.85,5.64-7.03,11.3-14.03,17.09-20.93,23.49-28.01,48.33-54.84,73.15-81.67,6.56-7.09,9.04-18.71,3.52-27.27s-15.34-12.7-25.41-10.34c-68.49,16.04-121.29,63.97-176.63,104.21-7.52,5.47-15.14,10.82-22.9,15.95-4,2.64-8,5.31-12.15,7.71-.97.56-2.02,1.02-2.97,1.61-2.17,1.35,3.89-.98-.06-.05-1.39.33-4.05.59,1.25.03-4.28.45,4.2,1.33-.17-.36,5.51,7.23,11.01,14.46,16.52,21.7.07-.79.18-1.6.21-2.39.11-2.55-.29,1.94-.32,2.03.57-1.65.62-3.74.98-5.45.7-3.34,1.59-6.63,2.64-9.88.49-1.49,1.01-2.98,1.56-4.45.34-.9.97-2.02,1.15-2.93-.02.1-1.83,3.98-.7,1.76,1.56-3.07,2.97-6.18,4.65-9.19s3.51-5.98,5.42-8.87c.89-1.34,1.8-2.67,2.73-3.98.64-.91,3.33-3.52,3.34-4.56,0,.11-2.64,3.29-1.03,1.35.52-.62,1.01-1.27,1.53-1.9,1.2-1.47,2.43-2.92,3.67-4.36,2.31-2.67,4.69-5.29,7.12-7.86,19.89-20.97,43.38-38.07,63.94-58.34,12.44-12.26,23.86-25.86,32.88-40.84,4.67-7.76,3.66-17.98-1.76-24.99-5.82-7.54-14.51-9.75-23.65-8.06-52.06,9.6-101.43,31.62-146.28,59.35-23.34,14.43-45.51,30.57-67.16,47.4-9.83,7.64-19.5,15.49-29.05,23.48-1.94,1.62-5.36,5.89-7.75,6.54l2.18-1.61c-2.11,1.28-1.64,1.23,1.43-.16,6.62-1.8,13.92,1.65,17.33,7.23l1.11,2.96c.23,3.78.32,4.45.29,2l-.19,2.76c-1.32,2.8-1.41,3.08-.27.84,2.01-3.02,3.91-6.13,5.93-9.16,18.9-28.31,38.31-56.27,58.18-83.91,6.89-9.59,1.98-25.47-8.07-30.78-11.63-6.15-23.43-2.16-30.78,8.07h0Z"/></g></svg>