<?xml version="1.0" encoding="UTF-8"?><svg xmlns="http://www.w3.org/2000/svg" viewBox="0 0 576.04 580.35"><defs><style>.cls-1{fill:#49c445;}.cls-2{fill:#378732;}.cls-3{fill:#1a1a1a;}</style></defs><g id="Layer_12"><path class="cls-1" d="M367.43,83.13c-.19-.06-.49-.13-.81-.2-.08-.04-.21-.1-.4-.2-.31-.15-.62-.3-.92-.47-.61-.33-1.2-.67-1.78-1.04-.32-.2-.98-.74-1.19-.9-.47-.44-.94-.88-1.4-1.34-.57-3.76-2.65-7.27-6.1-9.1,0-.24.02-.48.01-.73-.37-9.22-6.63-16.53-15.77-18.33-3.3-.65-7.01-.36-9.59-1.13-2.41-.72-4.78-1.33-7.21-1.7-.08-.71-.21-1.42-.43-2.13-3.46-11.31-11.9-19.69-23.06-23.44-2.02-.68-4.2-.69-6.28-.18-2.3-.12-4.65.4-6.78,1.78-1.35.87-2.56,2.01-3.55,3.31-6.33-1.09-13.46,2.77-14.95,9.3-.79,3.47-.23,7.06,1.42,10-.3.52-.62,1.03-.96,1.54-.17.2-.34.41-.5.61-2.22-.82-4.54-1.55-6.87-1.86-2.02-.27-3.6.58-4.99,1.77-3.88,1.51-6.4,4.73-8.73,8.06-1.13,1.62-2.32,3.2-3.64,4.66-2.5.79-4.81,2.52-6.54,5.39-.04.02-.08.04-.12.06.04-.33-.62.13-1.29.65-.22.1-.44.17-.66.25-4.09-2.43-9.72-2.72-13.53-.19-.77.51-1.22.78-1.63.91-.2-.39-.44-.76-.72-1.13,0-.01,0-.01-.02-.03-.13-.21-.28-.41-.41-.63-.11-.18-.2-.36-.3-.55-.13-.39-.25-.78-.35-1.19-.65-2.81-4.02-4.73-6.77-3.84-2.93.95-4.53,3.76-3.84,6.77.32,1.4.85,2.69,1.54,3.9-.28.27-.54.55-.8.84-.69-.3-1.43-.46-2.2-.46h-.27c-.76-.03-1.46.13-2.12.47-.68.22-1.27.6-1.77,1.14-.54.5-.92,1.09-1.14,1.77-.34.66-.5,1.36-.47,2.12l.2,1.46c.26.93.73,1.74,1.41,2.43l1.11.86c.55.32,1.13.53,1.74.64.17,1.47.59,2.82,1.2,4.05-.02.5,0,1.01.07,1.52,0,0-1.49,1.38-1.54,1.43-1.01,1.01-1.97,2.03-2.5,3.39-.57,1.44-.72,3.01-.41,4.54.09.68.28,1.32.6,1.93.04.25.09.45.14.63-.74.47-1.27,1.09-1.63,1.8-.24.42-.44.88-.58,1.41-.31,1.14-2.31,2.39-2.92,3.48-.97,1.71-1.38,4.02-.79,5.94.62,2.04,2.17,3.63,3.81,4.9.65.51,4.45,2.16,4.7,2.86.3.84.83,1.58,1.5,2.17-.6.78-1.01,1.74-1.14,2.91-.25,2.29-1.54,3.7-1.13,6.27.36,2.23,1.53,4.04,3.07,5.66,2.97,3.12,7.18,7.24,11.67,7.63,2.67.24,4.76-.87,7.19-1.76,2.47-.9,4.91-.99,7.52-1.05,3.44-.09,7.08.36,10.65.53.26.66.68,1.31,1.27,1.92,3.57,3.66,6.89,7.43,11.19,9.98,0,.78-.13,1.75-.2,2.22-.06.42-.08.84-.08,1.26-.42,1.02-.52,2.17-.19,3.38.74,2.68,3.97,4.88,6.77,3.84,4.27-1.58,8.45-3.39,12.52-5.41.41-.05.8-.16,1.19-.31,2.02,2.16,4.89,3.6,7.53,4.87,2.48,1.2,5.46.78,7.14-1.45.71.11,1.37.1,1.98-.03.03,0,.05,0,.08,0,2.67.24,5.36-2.4,5.5-5.03,5.01,1.42,9.39-5.67,5.21-9.22-2.24-1.9-5.55-3.89-9.03-5.05.26-.9.31-1.86.18-2.82,1.52-1.68,1.98-4.29.77-6.52-2.2-4.06-6.79-6.98-11.79-8.18,1.99-.72,3.55-2.09,4.14-4.44,1.61-6.36-6.15-8.49-11.43-9.52,1.32-.52,2.59-1.14,3.77-1.85.46-.19.92-.39,1.37-.61,2.97.53,6.55.25,10.09-.63,1.22.48,2.7.71,4.46.58,4.24-.3,10.66-2.91,13.6-7.04,3.46,1.6,7,3.02,10.68,4.1,4.13,1.22,8.3,2.25,11.93,3.93,9.9,4.59,18.95,9.15,29.95,10.3,6.99.73,13-6.5,13-13,0-1.78-.34-3.38-.92-4.82,1.12-1.36,1.96-2.93,2.35-4.65,1.62-7.12-2.15-13.75-9.08-15.99ZM295.8,52.35c.24-.11.47-.22.7-.34.03.06.07.13.1.19.05.17.11.35.18.58,0,0,0,.01,0,.02-.32-.16-.65-.3-.98-.45Z"/><path class="cls-2" d="M377.36,124.22c-.32-.41-.66-.76-1.01-1.08-.19-.65-.49-1.25-.88-1.81.05-.92-.03-1.94-.3-3.09-.2-.85-.54-1.54-.98-2.1.8-2.06,1.35-3.3,2.48-5.68,1.23-2.59.8-6.06-1.97-7.53-2.45-1.29-6.21-.8-7.53,1.97-1.46,3.07-2.8,6.21-4.01,9.39-.47,1.24-.26,2.64.36,3.86-.16.01-.33.03-.49.04-.9.05-1.79.08-2.69.09-.85-.69-1.96-1.13-3.36-1.15-4.34-.05-9.19-2.92-13.55-4.98.49-.29.98-.6,1.49-.93,2.39-1.55,5.25-2.08,7.28-4.21,2.21-2.31,3.32-5.78,4.68-8.6,3.07-6.34-6.41-11.93-9.5-5.55-.86,1.78-1.66,4.78-3.04,6.24-1.06,1.13-3.55,1.69-4.98,2.62-1.9,1.24-3.52,2.82-5.79,3.36-5.22-.42-9.53-4.14-14.92-3.88-2.58.12-4.98,1.16-7.48,1.68-3.29.69-6.53.66-9.87.35-2.73-.25-4.84,1.99-5.36,4.5-1.47-.09-2.93-.15-4.4-.18-1.16-.03-2.31-.03-3.47-.01-3.43-.64-7.74.19-10.72.64-6.08.93-4.71,11.31,1.46,10.8.72-.06,1.44-.09,2.16-.12-.18.53-.32.98-.34,1.24-.12,1.22-.06,2.4.19,3.53-.77-.42-1.73-.62-2.88-.52-7.91.73-17.32.36-24.8,3.32-1.45.57-2.57,1.4-3.95,2.07-1.49.73-1.13.43-3.77.07-3.77-.52-7.87-.24-11.5-1.47-8.31-2.82-1.97-12.01-8.48-16.56-1.56-1.09-2.99-.92-4.7-1.37-1.64-.44-2.53-1.25-3.77-2.42-3.12-2.95-6.35-6.37-6.47-10.89-.19-7.06-11.19-7.09-11,0,.2,7.43,4.61,14.54,10.31,19.48-3.21-1.09-7.5.57-7.54,4.99-.02,2.57.32,5.06,1.01,7.45-.71,1.49-.82,3.32.06,5.1,2.8,5.7,6.27,11.38,13.18,11.89.26.02.5.02.74,0,.56.28,1.13.54,1.73.72,3.7,1.13,7.57-.13,11.32-.45,4.49-.38,9.05-.26,13.51.37.9.13,1.73.06,2.49-.16.81,1.5,2.34,2.56,4.62,2.44,1.44-.07,2.85.15,4.25.48-1.55,2.67-1.2,6.28,2.04,7.36-.38.55-.76,1.1-1.13,1.66-2.99,4.56,2.96,10.5,7.53,7.53,2.91-1.9,6.76-4.95,10.46-3.46,2.92,1.17,4.94,3.78,8.09,4.71,1.68.5,3.42.66,5.17.58,2.46,2.48,5.46,3.78,9.3,4.1,1.16.1,2.14-.19,2.95-.71,3.85.32,7.7.45,11.56.13,2.97-.25,5.81-1.01,8.74-1.41,3.02-.41,4.85.67,7.6,1.71,7.6,2.88,21.38,1.4,21.96-8.64,8.61-3.44,16.96-7.3,24.09-13.36,2.41-.76,3.53-2.66,3.62-4.66.56-.82.93-1.82,1-3.02.04-.79.09-1.58.13-2.37.05-.96-.11-1.79-.43-2.49.63-1.38,1.6-3,1.8-3.73.82-3.04-.46-5.54-2.3-7.88ZM220.08,132.6c-2.33-2.77-4.4-5.72-6.4-8.74-.02-.03-.04-.05-.05-.07-.24-1.08-.35-2.21-.34-3.45.01-1.13-.26-2.08-.73-2.85.27.19.54.39.82.57,1.21.79,2.88,1.68,4.52,2.04-.02,1,.16,2.38.2,2.82.42,4.34,2.52,8.35,5.87,11.13.27.23.56.43.84.63-1.77.13-3.11-.16-4.73-2.08ZM284.83,145.18c2.26-1.57,4.48-2.93,6.84-4.06-.04.74,0,1.5.16,2.3.34,1.59,1.03,2.85,1.94,3.9-5.39,2.4-10.93,3.4-16.81,1.09,2.81-.65,5.39-1.51,7.86-3.22ZM261.33,135.69c4.82-.69,9.74-1,14.6-1.4.82.65,1.87,1.09,3.15,1.17.08,0,.17,0,.26.01-1.67,1.04-3.36,1.92-5.56,2.39-3.82.82-7.75,1.6-11.65.89-1.93-.35-3.71-.91-5.51-1.37,1.47-.76,2.99-1.45,4.72-1.7ZM321.83,157.47c-.13-.47-.33-.93-.58-1.36.55.31,1.11.61,1.68.89.08.19.17.38.27.57-.45-.05-.9-.09-1.37-.1ZM322.4,134.9c.28.13.55.27.83.4.54.74,1.02,1.54,1.43,2.38.2.41.54,1.2.91,2.16-.99-1.68-2.05-3.33-3.16-4.93Z"/></g><g id="garnish"><path class="cls-3" d="M380.86,122.8c-.9-1.4-1.91-2.76-2.61-4.27-.77-1.66-.95-3.48-.89-5.29.14-4.1,1.25-8.15,1.65-12.23.46-4.81.38-9.64-.19-14.44-.15-1.27-.95-2.36-2.27-2.48-4.64-1.6-8.78-4.38-12.11-7.98-3.5-3.78-5.49-8.18-7.07-13.02-1.59-4.87-3.64-9.67-8.34-12.28-4.03-2.24-8.75-2.58-13.25-3.02-4.38-.43-9.15-.86-12.17-4.23-.02-.02-.04-.03-.06-.05-.04-.31-.13-.63-.31-.95-1.54-2.8-3.08-5.59-4.62-8.39-1.48-2.7-2.88-5.46-4.83-7.85-3.43-4.2-8.8-6.6-14.18-6.72-.63-.01-1.14.17-1.52.47-5.9-3.9-15.09-1.46-18.08,5.04-.21.45-.38,1.57-.81,1.85-.52.35-1.78,0-2.34-.06-1.81-.22-3.56-.18-5.29.49-3.5,1.37-6.22,4.43-7.22,8.06-.54,1.96-.55,4.14.14,6.07.29.82.69,1.59,1.03,2.38-3.43-1.03-7.2-.96-10.56.29-2.28.85-4.41,2.11-6.11,3.88-1.98,2.06-3.21,4.66-4.83,6.98-1.42,2.03-3.36,3.74-5.36,5.18-1.06.76-2.15,1.47-3.25,2.17-.58.36-1.16.72-1.75,1.08-.18.11-.39.22-.57.34-.4-.39-1.19-.94-1.26-.98-.49-.32-1.05-.56-1.62-.72-1.17-.32-2.43-.2-3.59.07-1.86.42-3.89,1.71-5.73,1.57-.59-.04-1.23-.39-1.75-.86-.79-.72-1.49-1.53-2.23-2.31-1.69-1.79-3.64-3.25-6.2-3.28-1.01-.01-2.22.78-2.41,1.84-.42,2.36-.85,4.86-1.92,7.02-1.09,2.21-2.6,3.32-4.81,4.3-2.13.95-4.36,1.97-5.5,4.15-1.53,2.94-.23,5.98,1.79,8.28.92,1.04,2.05,1.88,2.95,2.95.49.58,1.34,1.61,1.06,2.43-.28.84-1.89,1.62-2.49,2.27-1.06,1.15-1.82,2.63-2.08,4.17-.27,1.58-.06,3.06.36,4.59.32,1.17.6,2.08.09,2.92-.87,1.45-2.83,2.69-4.02,4.17-1.49,1.85-2.27,4.15-1.62,6.51.51,1.89,1.85,3.44,3.25,4.74,1.35,1.25,2.83,2.37,4.04,3.76.05.06.08.09.11.12.01.02.02.02.03.05.12.16.23.33.33.5.1.17.2.34.28.52,0,0,0,0,0,0,0,.04.02.09.04.16,0-.01.04.22.08.35,0,.14.02.4.02.39-.06.73-.35,1.42-.57,2.12-1.89,5.98.72,12.14,5.07,16.33,2.22,2.13,4.82,3.84,7.47,5.4,2.9,1.71,5.62,3.43,9.07,2.21,1.71-.61,3.34-1.29,5.11-1.69,1.69-.38,3.4-.57,5.12-.67,1.74-.1,3.48-.1,5.22-.06,1.53.03,3.3-.1,4.81.21,1.22.25,1.78,2.06,2.44,2.99.96,1.34,2.03,2.61,3.25,3.74,1.99,1.84,4.24,3.27,6.69,4.36-.4,3.03-.8,6.06-1.19,9.1-.2,1.54,1.77,2.94,3.16,2.41,3.71-1.41,7.42-2.81,11.13-4.22,1.46-.55,3.37-1.67,4.98-1.43,1.49.22,2.87,1.28,4.14,2.03,5.94,3.52,12.13,7.31,19.05,8.48,3.71.63,7.31.41,11-.21,3.49-.59,6.93-1.53,10.47-1.76,7.41-.5,14.1,3.53,21.47,3.52,3.85,0,7.76-1.17,10.48-4.01,2.03-2.12,3.23-4.9,3.14-7.78,5.47-2.87,10.93-5.74,16.4-8.62,4.98-2.62,10.32-5.18,13.33-10.18.53-.88.45-1.72.05-2.39,0-.01,0-.03,0-.04-.47-3.35,1.3-6.79,1.77-10.06.57-3.92-.4-7.21-2.52-10.51ZM378.54,132.11c-.24,1.99-.92,3.91-1.37,5.85-.47,2.05-.65,4.02-.44,6.08-2.79,3.9-7.79,5.91-11.89,8.06-5.65,2.97-11.3,5.94-16.96,8.91-.98.52-1.42,1.79-1.15,2.82.58,2.22-.69,4.44-2.43,5.79-2.41,1.86-5.8,1.97-8.69,1.58-3.41-.46-6.67-1.66-10-2.46-3.45-.83-6.9-1.16-10.42-.75-6.61.77-13.13,3.22-19.83,1.76-6.39-1.4-11.98-5.01-17.53-8.28-1.66-.98-3.37-1.89-5.32-2.11-2.06-.23-3.91.49-5.8,1.21-2.8,1.06-5.6,2.12-8.4,3.18.32-2.42.64-4.84.95-7.26.18-1.34-1.28-2.5-2.5-2.5-.16,0-.31.02-.46.05-2.12-.89-4.08-2.15-5.74-3.74-.89-.85-1.71-1.77-2.41-2.78-.79-1.14-1.39-2.43-2.38-3.42-2.29-2.3-6.22-1.87-9.2-1.93-3.1-.06-6.18.05-9.24.5-1.48.22-2.94.53-4.36.98-.72.23-1.41.5-2.11.78-.63.25-1.42.7-2.1.68-1.11-.05-2.48-1.18-3.4-1.72-1.31-.76-2.6-1.54-3.85-2.39-4-2.74-8.51-7.51-7.29-12.84.33-1.43.93-2.74,1.06-4.22.09-1.1-.11-2.2-.53-3.21-.73-1.78-2.04-3.2-3.45-4.48-1.22-1.1-2.89-2.4-3.74-3.5-.39-.5-.54-.77-.67-1.37,0-.03-.01-.05-.02-.07,0-.04,0-.08.01-.16,0-.05.01-.22,0-.24.08-.45.19-.62.45-1.01.88-1.32,2.73-2.55,3.87-3.94.74-.91,1.38-1.9,1.67-3.05.42-1.67.07-3.3-.38-4.92-.3-1.08-.51-2.08-.03-3.15.49-1.09,1.58-1.66,2.43-2.43,2.46-2.23,2.53-5.58.83-8.3-.83-1.33-1.92-2.39-3.04-3.45-.79-.75-2.11-1.83-2.28-2.98-.12-.83.34-1.15,1-1.56,1.08-.67,2.3-1.11,3.45-1.65,4.62-2.18,6.6-6.55,7.71-11.19.47.45,1,1.04,1.43,1.51,1.4,1.53,2.92,3.04,4.95,3.68,2.2.7,4.47.08,6.57-.66.89-.31,1.81-.7,2.75-.85.64-.1.73-.04,1.29.48,1.13,1.05,2.25,1.83,3.88,1.59,1.46-.21,2.76-1.21,3.99-1.97,2.33-1.44,4.61-2.98,6.69-4.77,2.04-1.76,3.74-3.82,5.17-6.11,1.22-1.96,2.32-4.06,4.16-5.53,3.65-2.9,9.05-3.27,13.05-.91,1,.59,2.2.35,3.03-.39,1.6-1.42,1.82-3.57,1.28-5.54-.44-1.6-1.47-3.03-1.77-4.67-.41-2.28,1-5.09,3.1-6.46,1.19-.78,2.25-1.02,3.64-.91,1.93.16,3.84.57,5.66-.35,1.98-1,2.29-2.87,3.31-4.61.63-1.07,1.54-1.9,2.64-2.53,2.63-1.5,5.75-1.56,8.26.14,1.04.7,2.05.47,2.75-.18.34.2.74.33,1.22.34,4.26.09,8.46,2.18,10.96,5.68,1.56,2.18,2.75,4.64,4.04,6.98,1.44,2.61,2.87,5.22,4.31,7.83.14.26.32.46.5.63.06.47.26.94.65,1.38,6.49,7.22,16.96,4.26,25.1,7.39,1.76.68,3.44,1.89,4.59,3.55,1.47,2.15,2.23,4.66,3.03,7.11,1.68,5.16,3.99,9.83,7.61,13.93,3.69,4.18,8.41,7.37,13.6,9.37.34,3.69.41,7.4.13,11.11-.31,4.22-1.36,8.33-1.7,12.54-.33,4.03.58,7.71,2.74,11.11,1.8,2.84,3.8,5.34,3.37,8.89Z"/></g></svg>