<?xml version="1.0" encoding="UTF-8"?><svg id="Layer_17" xmlns="http://www.w3.org/2000/svg" viewBox="0 0 580.41 576"><defs><style>.cls-1{fill:red;}</style></defs><g id="sushi_outline"><path class="cls-1" d="M156.4,78.5c-19.11,26.57-37.78,53.45-56,80.64-8.12,12.13-19.03,27.77-6.5,41.25,5.81,6.25,14.9,7.06,22.28,3.29,6.48-3.3,12.02-9.32,17.59-13.95,42.18-35.09,87.28-67.45,137.09-90.86,27.97-13.15,57.5-22.91,87.91-28.52-4.23-5.51-8.47-11.02-12.7-16.53-15.22,25.29-38.25,44.32-60.33,63.39-22.21,19.18-44.24,39.48-58.89,65.28-8.48,14.94-13.76,31.09-15.18,48.22-.43,5.25,3.87,9.15,8.26,10.85,10.05,3.89,20.7-.23,29.39-5.5,7.48-4.53,14.74-9.47,21.91-14.46,14.24-9.92,28.05-20.44,41.86-30.95,27.49-20.94,55.11-42.16,85.8-58.29,16.71-8.78,34.23-15.6,52.63-19.91l-10.95-18.8c-26.11,28.22-52.25,56.46-76.81,86.06-22.81,27.48-46.74,56.6-49.9,93.59-.73,8.47,10.11,14.07,16.93,9.71,26.48-16.93,52.87-34.03,79.48-50.77,12.76-8.02,25.7-15.81,39.15-22.61,11.1-5.61,24.25-12.81,36.87-8.37l-6.72-16.53c-13.84,18.94-32.37,33.84-47.03,52.09-14.99,18.66-26.82,40.7-26.23,65.27.35,14.45,22.85,14.51,22.5,0-.5-20.76,10.77-39.32,23.97-54.54,15.14-17.47,32.53-32.72,46.22-51.47,4.59-6.29-.54-14.35-6.72-16.53-15.84-5.57-32.14.15-46.59,6.92s-28.37,14.89-41.97,23.33c-28.31,17.57-56.21,35.82-84.28,53.77,5.64,3.24,11.29,6.48,16.93,9.71,2.73-31.91,27.36-58.69,46.98-82.07,23.49-28.01,48.33-54.84,73.15-81.67,7.69-8.31.1-21.39-10.95-18.8-67.39,15.79-119.48,63.48-173.95,103.07-7.52,5.47-15.14,10.82-22.9,15.95-4,2.64-8,5.31-12.15,7.71-3.51,2.03-6.75,3.87-10.62,2.37l8.26,10.85c2.2-26.63,18.38-49.78,36.25-68.63,19.89-20.97,43.38-38.07,63.94-58.34,11.78-11.61,22.57-24.37,31.12-38.57,5.42-9.01-3.49-18.22-12.7-16.53-51.2,9.44-99.49,30.95-143.59,58.22-22.51,13.92-43.99,29.4-64.88,45.64-9.83,7.64-19.5,15.49-29.05,23.48-2.3,1.92-6.07,4.08-7.75,6.54-.34.49-1.54.5-1.36,1.12-.98-3.32,4.9,1.97,4.62,2.06l-.02.27c-.22.77-.26.44-.12-.99.4-.66.69-1.32,1.08-2.07,1.67-3.2,3.93-6.15,5.93-9.16,18.9-28.31,38.31-56.27,58.18-83.91,3.55-4.94.86-12.53-4.04-15.39-5.67-3.31-11.83-.91-15.39,4.04h0Z"/></g></svg>