<?xml version="1.0" encoding="UTF-8"?><svg xmlns="http://www.w3.org/2000/svg" viewBox="0 0 580.41 576"><defs><style>.cls-1{fill:#fb6205;}.cls-2{fill:#efefef;}.cls-3{fill:#c4b8b7;}.cls-4{fill:#eceaef;}.cls-5{fill:#f7f7f7;}.cls-6{fill:#7c6e6d;}.cls-7{fill:#1a1a1a;}.cls-8{fill:#ffddc6;}.cls-9{fill:#e1d2cf;}</style></defs><g id="white_out"><path class="cls-5" d="M323.94,396.79c-5.42-14.49-12.66-28.02-21.67-40.41,2.64-2.07,3.87-5.97,2.16-9.74-7.69-17-22.8-29.69-40.29-35.33-1.33-6.76-10.03-11.26-15.51-14.45-9.75-5.67-19.5-11.34-29.25-17.01-4.68-2.72-11.65.69-11.29,6.48.37,5.9,3.25,10.19,7.58,14.04,3.71,3.29,7.9,5.16,3.56,9.73-.74.78-1.57,1.52-2.44,2.22-5.75-2.34-11.4-4.93-16.96-7.75,5.32-1.21,7.57-8.56,3.51-12.62-14.84-14.83-35.13-23.74-56.17-24.05-10.39-.16-20.63,1.83-30.18,5.6-2.93-.42-5.79.3-8.24,3.16-.28.33-.53.68-.76,1.05-6.37,3.45-12.32,7.71-17.62,12.7-4.39,4.13-1.3,13.58,5.3,12.8,10.33-1.21,20.23.1,29.7,3.04-1.55,2.87-1.59,6.57,1.13,8.86,2.75,2.32,5.37,4.76,7.89,7.29,1.9,5.32,6.08,8.9,11.47,11,3.04,1.19,6.92-.79,8.47-3.45.39-.67.65-1.36.81-2.06,3.55.93,7.04,2.1,10.43,3.5.27.17.53.35.79.52.97.62,1.94.97,2.88,1.1.39.19.79.37,1.18.57-.07.83-.02,1.71.19,2.65,2.12,9.62,9.74,15.92,17.74,20.88,2.3,1.42,5.93,3.28,9.21,5.58-1.6-.31-3.19-.62-4.79-.93-9.47-1.84-13.15,11.27-3.99,14.46l21.22,7.39c2.42.84,5.29-.07,7.21-1.86,2.46.48,4.92.96,7.38,1.44,9.96,1.94,20.54,3.43,29.8,7.79,15.39,7.23,24.67,29.06,43.96,26.95,6.06-.66,10.4-7.92,5.3-12.8-10.52-10.09-22.47-18.09-34.78-25.58,15.42,6.18,31.74,11.24,42.5,24.53,4.66,5.75,15.1-.44,12.54-7.3ZM187.67,306.66c-.64-.81-1.31-1.6-2-2.34,1.26.04,2.52.09,3.79.13-.72.63-1.32,1.38-1.78,2.21ZM163.29,304.78c-.52-.44-1.06-.86-1.58-1.29.51.02,1.03.04,1.54.05-.02.41,0,.83.04,1.24ZM190.74,339.45c.85,1.11,1.7,2.21,2.59,3.27-1.36-.92-2.65-1.91-3.79-3,.4-.09.8-.18,1.2-.27ZM236.36,307.08c1.32.77,2.64,1.54,3.97,2.31-3.34,2.31-4.02,7.19-2,10.46-2.05-.61-4.08-1.24-6.11-1.91,2.41-3.25,3.96-7.01,4.15-10.86ZM172.75,288.87c-6.54-.23-13.08-.46-19.62-.68-3.15-.11-5.26,1.42-6.36,3.53-3.55-2.64-7.14-5.22-10.79-7.73,12.37-1.89,25.16-.24,36.76,4.88ZM218.29,365.57c.69.51,1.38,1.02,2.08,1.52.03.02.07.05.1.07-.59-.11-1.17-.23-1.76-.34-.13-.42-.27-.84-.43-1.25ZM226.63,353.2c-4.92-3.57-9.69-7.45-14.1-11.69.27.05.54.11.8.16,6.81,1.34,11.13-4.97,8.47-11.02-.07-.17-.16-.34-.23-.5.63.22,1.24.46,1.87.68.53,12.03,6.31,22.06,14.52,30.05-3.84-2.46-7.63-5-11.33-7.68ZM239.74,337.55c2.28-.05,4.56-.09,6.84-.14,7.5-.16,9.94-10.38,4.11-13.87,12.13,1.6,23.16,7.54,31.33,16.39-4.55,1.84-5.89,8.48-2.39,12.31,6.44,7.03,12.2,14.65,17.2,22.74-7.87-3.74-16.19-6.75-24.17-9.99-12.54-5.09-28.3-13.79-32.92-27.43Z"/><path class="cls-5" d="M216.84,264.1c9.32,11.34,21.95,19.45,34.27,27.17,5.86,3.67,11.71,7.33,17.28,11.43,3.83,2.82-2.32-2.08,1.26,1.03,1.47,1.27,2.94,2.53,4.35,3.87,2.46,2.36,4.71,4.9,6.81,7.59,6.67-8.64,13.33-17.28,20-25.91-17.47-10.22-34.96-20.45-53.06-29.54-19.09-9.58-38.9-16.68-58.79-24.31-8.07-3.1-18.45,3.42-20.3,11.52-2.15,9.43,2.88,16.98,11.52,20.3,18.98,7.29,34.7,12.77,52.57,21.83,17.51,8.87,34.46,18.79,51.39,28.69,7.13,4.17,16.32,2.18,21.29-4.25,5.42-7.01,3.85-15.07-1.29-21.66-9.01-11.55-21.57-19.79-33.86-27.49-5.86-3.68-11.77-7.29-17.37-11.36-.29-.21-3.9-3.19-1.33-.98-1.48-1.27-2.99-2.48-4.43-3.81-2.51-2.32-4.83-4.81-7-7.45-5.5-6.7-17.71-6.13-23.33,0-6.53,7.12-5.87,16.19,0,23.33h0Z"/><path class="cls-5" d="M257.06,292.63c1.82,1.31,3.63,2.64,5.43,3.99.54.4,2.03,1.55.67.49.89.69,1.77,1.39,2.64,2.09,3.51,2.8,6.95,5.69,10.32,8.65,6.96,6.11,13.62,12.55,19.97,19.29s12.03,13.34,17.54,20.42c1.72,2.21-1.18-1.58.5.67.67.9,1.35,1.8,2.01,2.7,1.33,1.81,2.64,3.63,3.93,5.47,2.74,3.91,5.37,7.88,7.92,11.91,4.62,7.28,14.9,10.87,22.58,5.92s10.86-14.78,5.92-22.58c-21.78-34.35-49.81-63.74-82.77-87.51-7.02-5.07-18.68-1.44-22.58,5.92-4.51,8.54-1.58,17.17,5.92,22.58h0Z"/><path class="cls-5" d="M287.48,327.98c8.29,10.65,18.22,19.76,28.11,28.87,4.94,4.55,9.88,9.11,14.58,13.92,2.33,2.38,4.59,4.82,6.77,7.34,1.17,1.35,2.32,2.72,3.41,4.13-1.73-2.23.68,1.01,1.07,1.57,4.02,5.77,6.91,12.07,10.31,18.19,3.64,6.55,8.55,12.32,13.77,17.68,2.45,2.51-1.54-1.86.8,1.05,2.06,2.57-.27-2.21.49.98,1.95,8.23,8.81,13.66,17.3,14.06,5.86.27,10.95-1.7,15.28-5.6.62-.56,3.11-3.34,1.15-1.27,1.7-.9,1.74-.95.13-.14,1.92-.44,1.92-.49,0-.14,8.73-.69,16.72-7,16.5-16.5-.1-4.32-.2-8.65-.3-12.97-.2-8.62-7.44-16.91-16.5-16.5s-16.72,7.26-16.5,16.5c.1,4.32.2,8.65.3,12.97l16.5-16.5c-5.49.43-9.82,1.36-14.79,3.77-1.8.87-3.3,1.89-4.89,3.12-.95.73-1.9,1.46-2.84,2.21-3.05,2.61-1.05,1.96,5.97-1.95,2.78.75,5.55,1.5,8.33,2.25l-1.13-.59c2.53,3.29,5.06,6.57,7.58,9.86-1.32-6.92-5.47-12.75-10.03-17.94-1.88-2.14-3.89-4.15-5.76-6.29,1.58,1.81-.14-.23-.72-1.13-.75-1.17-1.45-2.37-2.13-3.58-6.29-11.36-12.3-21.89-20.97-31.72-15.22-17.27-34.26-30.75-48.45-48.99-5.33-6.85-17.82-6.01-23.33,0-6.66,7.26-5.68,16.03,0,23.33h0Z"/><path class="cls-5" d="M424.77,391.69c-.73-11.93-1.05-23.87-.97-35.82.06-8.63-7.63-16.9-16.5-16.5-8.99.4-16.44,7.25-16.5,16.5-.08,11.95.24,23.89.97,35.82.53,8.6,7.21,16.92,16.5,16.5,8.49-.38,17.06-7.27,16.5-16.5h0Z"/><path class="cls-5" d="M419.28,334.41h-12.69c-6.54,0-12.8,5.75-12.5,12.5s5.49,12.5,12.5,12.5h12.69c6.54,0,12.8-5.75,12.5-12.5s-5.49-12.5-12.5-12.5h0Z"/><path class="cls-5" d="M423.58,335.14c2.36-7.94-.61-14.79-5.18-21.13-1.52-2.11-1.46-2.04-1.8-4.3-.67-4.37-1.12-8.04-3.57-11.87-3.63-5.68-11.11-7.99-17.1-4.48-5.66,3.31-8.13,11.39-4.48,17.1-.4-.63.31.65.4,1.07-.23-1.01.07,1.34.07,1.27.43,3.34.9,6.1,2.27,9.19.97,2.17,2.14,3.95,3.55,5.86.52.71,1.08,1.92,1.73,2.48,1.12.97-.88,1.21.03-1.83-4.59,15.45,19.53,22.06,24.11,6.65h0Z"/><path class="cls-5" d="M380.06,288.36l2.61,8.09c.99,3.08,2.91,5.81,5.74,7.47,2.68,1.57,6.63,2.23,9.63,1.26,6.22-2.01,10.88-8.71,8.73-15.38l-2.61-8.09c-.99-3.08-2.91-5.81-5.74-7.47-2.68-1.57-6.63-2.23-9.63-1.26-6.22,2.01-10.88,8.71-8.73,15.38h0Z"/><path class="cls-5" d="M398.82,274.42c0-13.17-10.78-24.5-24.19-24.1-2.93.09-5.85.66-8.73,1.19.96-.17-1.63.52-1.01.12,1.33-.86,2.14,1.99.45-.43-3.48-4.98-9.24-9.32-13.52-13.65-2.95,7.11-5.89,14.23-8.84,21.34-1.24.03-3.09-1.66-3.35-2.66,4.15,15.53,28.27,8.94,24.11-6.65-2.51-9.38-10.98-15.93-20.75-15.69-10.76.26-16.58,13.52-8.84,21.34,7.05,7.11,14.89,18.25,25.03,20.68,4.95,1.19,10.28.18,14.8-.57,1.62-.27,1.24.48.25-.48-.15-.14-.39-.8-.46-.85,0,0,.06,1.7.06.4,0,16.09,25,16.11,25,0h0Z"/><path class="cls-5" d="M331.19,252.66c16.09,0,16.11-25,0-25s-16.11,25,0,25h0Z"/><path class="cls-5" d="M323.55,226.93c-1.77-1.38-3.23-2.66-4.38-4.53-2.99-4.87-8.61-7.04-14.12-5.74-1.81.43-2.9.75-4.49.84-.55.03-1.92-.47-1.1-.05.51.26.77.55.15-.25-2.75-3.58-5.62-7.09-9.58-9.42-8.97-5.28-21.12-4.8-31.2-5.86-6.72-.71-12.5,6.25-12.5,12.5,0,7.35,5.76,11.79,12.5,12.5,5.26.55,10.79.71,15.99,1.68-.28-.05,3.09,1.09,2.47.66.83.57,2.4,2.89,3.34,4.06,7.96,9.86,19.63,10.15,31.07,7.45-4.71-1.91-9.41-3.83-14.12-5.74,2.24,3.65,4.9,6.96,8.29,9.59,5.33,4.13,12.48,5.19,17.68,0,4.31-4.31,5.36-13.52,0-17.68h0Z"/><path class="cls-5" d="M251.3,199.22c-5.5.33-11.12.35-16.54-.72-6-1.19-11.75-3.36-17.8-4.28-6.33-.97-12.62-.6-18.62,1.73-2.99,1.16-5.87,2.48-8.58,4.2-1.12.71-2.2,1.48-3.26,2.27l-2.53,1.95c.23-.27.49-.51.78-.72h6.65l-1.07-.45,7.47,5.74c.38,1.89,0,1.18-1.12-2.14-.69-1.3-1.54-2.48-2.55-3.56-1.23-1.34-2.67-2.59-4.24-3.51-3.31-1.92-6.86-2.75-10.6-3.23-11.33-1.45-20.51,6.04-18.43,17.91,1.16,6.65,9.31,10.4,15.38,8.73,7.03-1.93,9.9-8.7,8.73-15.38l-.15-.85-1.26,9.63.48-.7-4.48,4.48c-1.3.82-2.63,1.04-3.98.68.63.09,1.26.23,1.87.41.87.25.81.22-.16-.1-3.28-4.8-3.86-5.05-1.72-.75,2.45,4.43,7.4,7.63,12.53,7.63,7.89,0,12.52-6.73,19.11-8.96,5.88-1.99,12.79,1.63,19.15,3,8.19,1.77,16.6,2.47,24.96,1.97,6.74-.4,12.5-5.46,12.5-12.5,0-6.45-5.73-12.91-12.5-12.5h0Z"/><path class="cls-5" d="M155.01,232.56c6.42.02,12.63-1.66,18.23-4.79s8.09-11.5,4.48-17.1-10.99-7.9-17.1-4.48c-.48.28-.97.54-1.47.78l1.47-.59c-.16.41-2.33.79-2.76.9-.4.11-.81.2-1.21.28-1.1.19-1.09.2.02.03,1.11-.14,1.12-.16,0-.06-.55.03-1.11.04-1.66.03-6.54-.02-12.8,5.76-12.5,12.5s5.49,12.48,12.5,12.5h0Z"/><path class="cls-5" d="M147.26,209.57c-7.52,2.99-12.7,7.61-17.97,13.59-1.94,2.21-4,4.53-5.96,5.93-3.12,2.23-6.71,3.81-9.94,5.87-7.06,4.5-14.76,9.69-19.7,16.54-2.9,4.01-4.28,8.49-4.84,13.38-.39,3.43-.17,6.88-1.23,10-2.16,6.4,2.49,13.66,8.73,15.38,6.83,1.88,13.21-2.31,15.38-8.73,1.26-3.72,1.54-7.69,1.74-11.59.11-2.1.14-3.5.84-4.43,3.3-4.38,9.67-7.84,14.57-10.71,5.89-3.44,11.53-6.8,16.22-11.87,1.74-1.88,3.36-3.88,5.11-5.76.93-1,1.87-2.02,2.93-2.88-.03.02,1.79-1.03.77-.62,6.27-2.49,10.66-8.36,8.73-15.38-1.64-5.96-9.07-11.24-15.38-8.73h0Z"/><path class="cls-5" d="M113.96,272.84l78.4-.07c8.88,0,16.37-10.84,10.79-18.81-9.1-12.99-21.98-22.46-37.55-26.13,1,7.62,1.99,15.23,2.99,22.85,13.14-7.03,27.9-7.16,41.63-1.8,1.11-8.18,2.22-16.37,3.32-24.55-24.67-2.28-49.43-.68-73.7,4.23-6.62,1.34-10.43,9.19-8.73,15.38,1.89,6.89,8.74,10.08,15.38,8.73,22.09-4.47,44.63-5.42,67.05-3.34,6.11.57,11.6-5.19,12.28-10.84.78-6.57-2.99-11.39-8.95-13.71-19.81-7.72-42.29-5.63-60.9,4.32-9.35,5-7.37,20.41,2.99,22.85,9.11,2.14,17.25,6.99,22.61,14.64,3.6-6.27,7.2-12.54,10.79-18.81l-78.4.07c-16.09.01-16.11,25.01,0,25h0Z"/><path class="cls-5" d="M152.78,253.24c15.16,1.6,30.12-.92,45.12-2.81,14.58-1.83,29.21-2.31,43.82-.43,27.88,3.58,54.66,14.04,79.76,26.29,6.06,2.96,13.52,1.65,17.1-4.48,3.21-5.5,1.61-14.13-4.48-17.1-27.65-13.49-56.64-24.81-87.27-29.03-15.73-2.17-31.28-2.38-47.05-.48-15.64,1.89-31.2,4.71-47,3.04-6.72-.71-12.5,6.25-12.5,12.5,0,7.35,5.76,11.79,12.5,12.5h0Z"/><path class="cls-5" d="M328.15,279.88c9.42-.25,18.53,3.3,25.91,9.61,8.31,7.1,14.17,15.82,18.08,26.27,4.67,12.45,7.01,25.65,8.79,38.78.67,4.91,1.47,9.89,1.41,14.85,0,.08-.27,4.09.04,1.75-.16,1.17-.46,2.43-.85,3.54l.37-.83c-.77,1.23-.75,1.32.07.27l-.79.79c1.02-.81.89-.83-.39-.07l18.36,7.47c-6.54-16.3-15.47-30.9-27.28-43.95-10.24-11.33-22.09-21.03-34.02-30.51-11.8-9.37-23.79-18.55-34.68-28.98-12.22-11.7-22.22-25.3-36.51-34.73-7.7-5.08-16.08-8.99-24.03-13.65-8.09-4.74-15.79-10.08-22.99-16.08-2.95,7.11-5.89,14.23-8.84,21.34,36.02.25,69.75,12.93,98.17,34.84,14.83,11.43,28.68,24.28,42.22,37.2,10.42,9.94,25.89,22.21,25.44,36.89l12.5-12.5c-2.35-.06-.09.49-2.19-.47,1.25.58-2.01-1.46-1.94-1.41-.76-.6-3.21-3.29-4.43-4.71-3.79-4.41-7.2-9.13-10.95-13.57-7.98-9.44-16.67-18.28-25.96-26.43-18.99-16.66-40.23-30.66-63.18-41.22-5.65-2.6-12.17-2.08-16.13,3.22s-3.38,11.77.98,16.41c17.26,18.4,35.81,35.49,55.56,51.18,5.28,4.19,12.52,5.16,17.68,0,4.35-4.35,5.31-13.46,0-17.68-19.75-15.69-38.31-32.78-55.56-51.18-5.05,6.54-10.1,13.09-15.15,19.63,23.03,10.6,44.39,24.51,63.02,41.73,9.28,8.57,17.9,17.86,25.76,27.75,8.59,10.82,17.52,21.39,32.49,21.75,6.91.17,12.29-5.87,12.5-12.5.51-16.34-8.75-30.14-19.54-41.56s-23.19-22.61-35.27-33.27c-24.79-21.89-51-40.97-82.91-50.95-17.12-5.35-35.19-8.01-53.12-8.14-10.14-.07-17.4,14.2-8.84,21.34,12.99,10.84,26.93,19.42,41.72,27.52,6.7,3.67,13.1,7.53,18.68,12.79,5.96,5.61,11.2,11.91,16.83,17.84,20.43,21.5,45.99,37.16,67.23,57.77,12.08,11.72,22.31,25.23,28.62,40.95,3.11,7.74,10.54,11.43,18.36,7.47,14.27-7.23,14.77-24.36,13-38.17-2.12-16.58-4.27-33.41-10.17-49.15-10.76-28.69-35.24-55.08-68.1-54.23-16.06.42-16.12,25.42,0,25h0Z"/><path class="cls-9" d="M240.07,265.89c6.59.03,12.68.92,19.02,2.72,2.22-8.04,4.43-16.07,6.65-24.11-20.71-4.8-41.74-9.45-63.12-9.05-9.99.19-17.59,14.1-8.84,21.34,5.62,4.65,11.25,9.3,16.87,13.95,2.95-7.11,5.89-14.23,8.84-21.34-8.38-.8-16.76-1.6-25.14-2.4-7.69-.73-14.74,8.64-12.05,15.82,2.37,6.33,5.77,10.78,11.3,14.63,3.21-7.62,6.42-15.23,9.63-22.85l-.5-.2,8.73,8.73-.2-.58v6.65l.2-.59-5.74,7.47.81-.43-6.31,1.71c12.09-.95,24.58-.09,36.7-.09-1.11-8.18-2.22-16.37-3.32-24.55-3.64.81-7.02,2.21-10.37,3.84l17.1,17.1c-.55,1.14-1.36,1.75-2.45,1.83,1.5-.33,1.72-.45.67-.34,2.55-.23,2.01-.24,3.76.23,3.85,1.02,6.75,2.42,10.06,4.71,2.1-7.76,4.21-15.53,6.31-23.29-10.33-.12-20.65,0-30.97.39s-15.08,10.24-10.79,18.81c2.97,5.93,9,8.9,15.16,10.49,3.81.98,7.26,2.08,9.54,5.13l17.1-17.1c-1.01-.78-2.02-1.56-3.02-2.34-2.1,7.76-4.21,15.53-6.31,23.29,3.33-.02,6.95,1.4,8.95,4.49,3.66,5.66,11.09,8,17.1,4.48,5.63-3.3,8.17-11.41,4.48-17.1-6.81-10.52-17.9-16.93-30.54-16.87-5.49.03-10.59,3.87-12.05,9.18-1.6,5.81,1.29,10.68,5.74,14.12,1.01.78,2.02,1.56,3.02,2.34,9.75,7.53,24.4-7.34,17.1-17.1-3.96-5.3-8.45-10.03-14.48-13-2.8-1.38-5.71-2.52-8.73-3.31-1.04-.27-2.15-.67-3.21-.81-3.04-.4.96,0,1.72,1.5-3.6,6.27-7.2,12.54-10.79,18.81,10.32-.39,20.64-.52,30.97-.39,5.48.07,10.61-3.93,12.05-9.18,1.54-5.62-1.15-10.93-5.74-14.12-14.02-9.73-35.19-13.07-46.24,2.55-3.16,4.47-1.72,11.47,1.95,15.15,4.12,4.12,10.11,4.4,15.15,1.95.97-.47,2.98-1,4.4-1.32,13.91-3.11,10.61-24.56-3.32-24.55-11.25,0-22.5-.09-33.75.01-6.79.06-13.75,2.38-15.82,9.68-2.2,7.76,2.17,13.97,9.23,16.74,5.72,2.24,12.64-2,14.75-7.24,2.44-6.06.13-11.95-5.11-15.61.22.16.09.04.19.31l-12.05,15.82c8.38.8,16.76,1.6,25.14,2.4,10.45,1,16.97-14.62,8.84-21.34-5.62-4.65-11.25-9.3-16.87-13.95-2.95,7.11-5.89,14.23-8.84,21.34,19.25-.36,37.83,3.84,56.47,8.16,15.64,3.62,22.18-19.69,6.65-24.11-8.33-2.37-17-3.57-25.66-3.61-16.09-.07-16.11,24.93,0,25h0Z"/><path class="cls-9" d="M265.78,306.21c3.13-.27-.32-.67-.46-.52.13-.14,1.4,1.08,1.24.9,1.34,1.54,2.98,2.99,4.54,4.3,2.03,1.71,4.08,3.18,6.47,4.29,1.44.66,2.89,1.22,4.4,1.67.64.19,4.49,1.46,1.92.1-2.25-1.19-.1.33-.13.29-.12-.22.87,1.3,1.1,1.62,1.5,2.07,3.03,4.2,4.93,5.93,3.86,3.5,8.25,5.91,12.94,8.05,14.65,6.7,25.81-12.18,12.62-21.59-12.92-9.21-27.89-14.13-43.59-15.64-6.73-.65-12.5,6.21-12.5,12.5,0,7.3,5.75,11.85,12.5,12.5,11.33,1.09,21.78,5.67,30.98,12.23,4.21-7.2,8.41-14.39,12.62-21.59-3.13-1.43-8.02-3.87-9.32-5.59-3.97-5.26-7.3-9.83-13.87-12-1.96-.65-3.4-.58-4.69-1.48-.99-.69-2.64-2.75-3.83-3.79-4.99-4.37-11.01-7.76-17.88-7.18s-12.5,5.34-12.5,12.5c0,6.32,5.73,13.08,12.5,12.5h0Z"/><path class="cls-9" d="M297.22,322.35c1.28,8.55,5.44,16.54,11.27,22.88,2.54,2.76,5.68,4.83,8.35,7.45s4.13,5.81,5.81,8.97c3.17,5.95,11.44,7.8,17.1,4.48,6.03-3.52,7.67-11.12,4.48-17.1-3.86-7.25-8.36-12.92-14.61-18.22-5.08-4.31-7.3-8.4-8.3-15.1-1-6.68-9.43-10.36-15.38-8.73-7.16,1.97-9.73,8.67-8.73,15.38h0Z"/><path class="cls-9" d="M365.57,361.56c1.93-14,1.38-27.71-2.78-41.31-6.12,4.71-12.24,9.41-18.36,14.12,5.65,3.95,12.21,6.73,18.98,8.03,4.99.96,9.97-.24,13.14-4.48,2.7-3.62,4.02-9.93.98-13.88-9.63-12.52-19.65-24.69-30.29-36.38-5.05,6.54-10.1,13.09-15.15,19.63,8.98,4.2,17.95,8.4,26.93,12.6,8.83,4.13,18.13-.85,18.81-10.79.19-2.76-.18-5.57-1.15-8.16-5.13,5.13-10.25,10.25-15.38,15.38,5.03,1.01,9.94,2.32,14.8,3.96,7.84,2.64,15.75-4.32,15.82-12.05.02-2.32.04-4.64.07-6.96l-15.82,12.05c5.25,1.38,10.54,3.13,15.88,4.11,7.97,1.46,15.45-2.21,17.46-10.49,2.7-11.09-3.41-23.37-10.26-31.61-4.32-5.19-13.21-4.47-17.68,0-5.14,5.14-4.33,12.47,0,17.68,1.7,2.04,3.87,7.13,3.44,8.7l8.73-8.73-1.07.43h6.65c-5.55-.82-11.08-2.77-16.51-4.2-7.9-2.08-15.75,3.88-15.82,12.05-.02,2.32-.04,4.64-.07,6.96l15.82-12.05c-4.86-1.64-9.77-2.95-14.8-3.96-8.49-1.7-18.95,5.74-15.38,15.38.97,1.19,1.05,1.7.25,1.52l18.81-10.79-26.93-12.6c-12.64-5.91-25.08,8.72-15.15,19.63,9.19,10.09,18.06,20.5,26.38,31.32,4.71-6.12,9.41-12.24,14.12-18.36-5.04-.98-8.75-2.54-13.01-5.51-9.02-6.31-21.42,4.14-18.36,14.12,2.76,9.02,4.08,18.61,2.78,28.02-.92,6.68,1.62,13.42,8.73,15.38,5.84,1.6,14.45-2,15.38-8.73h0Z"/><path class="cls-9" d="M400.47,287.67c3.66-11.65-4.97-19.23-14.23-23.98-7.87-4.03-16.04-8-24.65-10.21-9.39-2.41-18.81-2.45-28.27-.47-4.53.95-9.52,2.01-13.67,4.14-2.79,1.44-5.18,3.36-6.89,6.05-.81,1.25-1.44,2.59-1.88,4.02-.51,1.45-.61,1.54-.28.27l4.48-4.48-.9.68,18.36,7.47c.66,3.59.6.78,1.33-1,.82-1.98,1.73-3.92,2.32-5.99s.88-4.26,1.14-6.43c.17-1.05.27-2.11.31-3.17.06-2.03.02-2.12-.11-.28l-5.74,7.47c-1.22.92-3.21.23-.34.3,1.5.03,2.99-.07,4.49,0,2.25.1,4.24.52,6.43,1.06,9.51,2.35,17.5-6.02,15.38-15.38-.17-.77-.35-1.53-.52-2.3-1.49-6.59-9.08-10.46-15.38-8.73-6.77,1.86-10.23,8.77-8.73,15.38.17.77.35,1.53.52,2.3,5.13-5.13,10.25-10.25,15.38-15.38-10.81-2.67-31.4-5.43-35.59,8.64-1.22,4.09-.51,7.7-1.81,11.39-.89,2.51-2.33,4.91-3.08,7.53-1.11,3.85-.8,7.4-.1,11.25,1.34,7.33,12.22,12.15,18.36,7.47,3.21-2.45,6.12-5.06,7.25-9.13s-5.97,3.27-2.44,3.14c1.38-.05,3.32-.94,4.62-1.28,5.02-1.29,9.98-2.05,15.16-1.24,4.8.74,9.65,2.53,14.07,4.52,2.76,1.24,5.46,2.61,8.16,3.99,1.07.55,2.14,1.09,3.2,1.66.62.3,1.22.64,1.8,1,2.71,1.79,1.95-.52-2.26-6.92-4.84,15.38,19.29,21.97,24.11,6.65h0Z"/><path class="cls-9" d="M369.74,277.31c16.09,0,16.11-25,0-25s-16.11,25,0,25h0Z"/><path class="cls-9" d="M393.51,324.99c-1.31.3-3.15-.36-4.51-.41-2.07-.08-4.21.09-6.22.61-4.54,1.18-8.79,3.99-11.09,8.17-4.76,8.65-.37,20.72,9.63,22.94-1.84-6.96-3.68-13.93-5.52-20.89-11.35,10.51-20.75,21.82-22.42,37.71-1.09,10.39,14.73,17.04,21.34,8.84,4.85-6.01,9.5-15.6,15.31-19.57,3.25-2.22,6.14-1.2,7.07,2.12,4.3,15.48,28.43,8.9,24.11-6.65-4.07-14.64-19.07-24.21-34.08-21.07-15.17,3.17-21.29,16.58-30.08,27.49,7.11,2.95,14.23,5.89,21.34,8.84.24-2.3,2.34-6.33,4.21-8.84,3.09-4.14,7.11-7.7,10.88-11.19,6.72-6.22,3.55-18.88-5.52-20.89l-.93-.21,5.52,3.21c-7.97,9.73-8.91,14.53-2.83,14.41.9.12,1.8.21,2.7.28,2.63.15,5.16-.22,7.73-.81,6.58-1.52,10.47-9.06,8.73-15.38-1.85-6.75-8.78-10.25-15.38-8.73h0Z"/><path class="cls-9" d="M384.89,380.62l-.77,3.77c-.52,1.66-.6,3.32-.22,4.98.08,1.66.57,3.21,1.48,4.65.79,1.46,1.86,2.63,3.22,3.51,1.21,1.1,2.62,1.85,4.25,2.24,3.2.73,6.79.57,9.63-1.26,2.63-1.7,5.09-4.3,5.74-7.47l.77-3.77c.52-1.66.6-3.32.22-4.98-.08-1.66-.57-3.21-1.48-4.65-.79-1.46-1.86-2.63-3.22-3.51-1.21-1.1-2.62-1.85-4.25-2.24-3.2-.73-6.79-.57-9.63,1.26-2.63,1.7-5.09,4.3-5.74,7.47h0Z"/><path class="cls-9" d="M425.42,393c1.64-15.83-10.53-31.83-26.06-34.86-6.62-1.29-13.49,1.87-15.38,8.73-1.68,6.13,2.07,14.08,8.73,15.38,1.03.2,2.04.41,3.02.77.83.28.78.27-.14-.02l1.08.62c1.56,1.35.03-.17.9.73.24.25,1.96,2.23.9.79.5.67.89,1.41,1.32,2.13,1.72,2.93-.08-.75.41,1.04.21.78.49,2.74.35.95.1,1.25,0,2.49-.13,3.74-.7,6.72,6.25,12.5,12.5,12.5,7.34,0,11.8-5.76,12.5-12.5h0Z"/><path class="cls-9" d="M395.74,398.62c-4.31-5.2-5.1-11.6-4.21-18.43s-6.37-12.5-12.5-12.5c-7.48,0-11.62,5.77-12.5,12.5-1.74,13.29,3.14,25.98,11.53,36.1,4.31,5.2,13.22,4.46,17.68,0,5.15-5.15,4.32-12.46,0-17.68h0Z"/><path class="cls-9" d="M302.68,257.25c4.42-6.22,3.59-14.92-.6-21-4.54-6.57-11.89-8.92-19.06-11.48-6.31-2.25-12.8-5.31-19.36-6.68-9.16-1.9-17.48,2.75-20.35,11.65-2.51,7.79,4.22,15.83,12.05,15.82,9.52-.01,20.04-1.44,29.1,1.95,1.11-8.18,2.22-16.37,3.32-24.55-10.48,1.29-21.24,1.4-31.64-.55-5.18-.97-10.29-2.31-15.28-4-4.05-1.37-9.65-2.9-12.63-5.92-11.31-11.48-28.99,6.2-17.68,17.68,5.16,5.23,12,7.9,18.71,10.54,5.99,2.36,12.19,4.18,18.5,5.47,13.18,2.7,26.66,3.42,40.01,1.78,6.18-.76,11.48-4.17,12.28-10.84s-2.97-11.47-8.95-13.71c-11.16-4.18-24.05-2.86-35.74-2.84l12.05,15.82.36-1.12-3.21,5.52c-1.54,1.78-9.15.64-3.52,2.61,1.21.42,2.41.86,3.61,1.29,3.01,1.07,6.01,2.15,9.02,3.22,2.46.88,5.21,2.37,7.77,2.78-.63-.1,1.34.6,1.2.72-1.25,1.08-1.91-6.26-1.55-6.78-3.91,5.51-.98,13.91,4.48,17.1,6.27,3.67,13.18,1.04,17.1-4.48h0Z"/><path class="cls-9" d="M236.27,199c-16.69-2.15-33.52,1.51-48.3,9.39-5.95,3.18-7.8,11.44-4.48,17.1,3.52,6.02,11.13,7.67,17.1,4.48,11.13-5.94,23.24-7.58,35.68-5.98,6.71.86,12.5-6.36,12.5-12.5,0-7.47-5.77-11.63-12.5-12.5h0Z"/><path class="cls-9" d="M145.86,245.89c10.83-1.3,21.54-.12,31.39,4.76,6.05,2.99,13.53,1.62,17.1-4.48,3.23-5.52,1.59-14.1-4.48-17.1-13.68-6.77-28.77-10.01-44.01-8.17-6.7.81-12.5,5.17-12.5,12.5,0,6.13,5.75,13.31,12.5,12.5h0Z"/><path class="cls-9" d="M168.18,219.8c5.58,3.69,11.16,7.39,16.74,11.08s14.07,1.26,17.1-4.48c3.31-6.27,1.35-13.24-4.48-17.1-5.58-3.69-11.16-7.39-16.74-11.08s-14.07-1.26-17.1,4.48c-3.31,6.27-1.35,13.24,4.48,17.1h0Z"/><path class="cls-9" d="M148.85,235.09c16.09,0,16.11-25,0-25s-16.11,25,0,25h0Z"/><path class="cls-9" d="M110.63,270.31c8.39-8.28,20.98-12.92,31.86-11.43,6.68.92,13.42-1.61,15.38-8.73,1.6-5.83-2-14.45-8.73-15.38-20.77-2.85-41.07,2.95-56.18,17.86-11.47,11.32,6.21,28.99,17.68,17.68h0Z"/><path class="cls-9" d="M108.63,275.36c-.26-2.36-.24-4.69.04-7.05l-.45,3.32c.14-.94.31-1.86.52-2.78,1.44-6.36-1.94-13.83-8.73-15.38-6.35-1.45-13.83,1.91-15.38,8.73-.97,4.29-1.49,8.76-1.01,13.15.37,3.41,1.15,6.32,3.66,8.84,2.17,2.17,5.73,3.8,8.84,3.66s6.59-1.21,8.84-3.66c2.1-2.29,4.01-5.61,3.66-8.84h0Z"/><path class="cls-9" d="M153.37,267.51h18.09c6.54,0,12.8-5.75,12.5-12.5s-5.49-12.5-12.5-12.5h-18.09c-6.54,0-12.8,5.75-12.5,12.5s5.49,12.5,12.5,12.5h0Z"/><path class="cls-3" d="M107.37,272.51c.11-5.51,6.11-9.79,10.41-12.99,4.76-3.55,7.18-9.52,3.95-15.05-2.74-4.69-10.26-7.52-15.05-3.95-10.93,8.15-21.01,17.34-21.31,31.99s21.71,14.16,22,0h0Z"/><path class="cls-3" d="M110.09,259.26c4.09-3.29,9.67-5.2,14.62-5.52,5.93-.39,11-4.77,11-11,0-5.65-5.04-11.4-11-11-11.45.76-21.27,4.79-30.18,11.97-4.63,3.73-3.88,11.67,0,15.56,4.58,4.58,10.92,3.74,15.56,0h0Z"/><path class="cls-3" d="M128.5,245.58c4.16-1.29,8.37-2.22,12.69-2.8,2.52-.34,5.36-2.98,6.57-5.06,1.38-2.36,1.96-5.83,1.11-8.48s-2.51-5.23-5.06-6.57c-2.81-1.48-5.37-1.53-8.48-1.11-4.31.58-8.53,1.51-12.69,2.8-5.49,1.7-9.55,7.75-7.68,13.53s7.65,9.51,13.53,7.68h0Z"/><path class="cls-3" d="M130.79,263.74c9.1-1.16,17.67-.48,26.41,2.31,10.45,3.34,14.92-13.07,4.52-16.39s-20.53-4.25-30.93-2.92c-4.55.58-8.5,3.49-8.5,8.5,0,4.14,3.91,9.09,8.5,8.5h0Z"/><path class="cls-3" d="M198.63,221.1c-16.99,15.04-9.85,42.32,11.34,48.67,10.5,3.14,14.99-13.26,4.52-16.39-9.65-2.89-10.95-13.96-3.84-20.26,8.21-7.27-3.85-19.25-12.02-12.02h0Z"/><path class="cls-3" d="M252.27,308.13c9.15-5.92,20.12-5.63,29.07.51s17.55-8.52,8.58-14.68c-13.63-9.36-32.37-9.48-46.23-.51-9.15,5.92-.64,20.65,8.58,14.68h0Z"/><path class="cls-3" d="M162.36,286.61c11.84,1.17,25.18.14,32.34-10.82,6.61-10.13,2.01-24.13-9.66-27.69-10.49-3.2-14.97,13.21-4.52,16.39.43.13-.13-.77.08-.11.15.48.42,1.05.25,1.54-.44,1.28-1.84,2.18-2.94,2.78-4.53,2.47-10.65,1.39-15.54.91-4.58-.45-8.5,4.23-8.5,8.5,0,4.97,3.91,8.05,8.5,8.5h0Z"/><path class="cls-3" d="M422.81,399.02c3.18-13.99-3.78-25.84-13.41-35.44-7.76-7.73-19.78,4.28-12.02,12.02,4.95,4.93,10.76,11.32,9.03,18.9-2.42,10.65,13.96,15.2,16.39,4.52h0Z"/><path class="cls-3" d="M425.16,374.1c-.33-4.2-.1-8.15,1.24-12.17,1.21-3.64,3.81-6.53,5.05-10.12,1.5-4.36.86-8.97-2.68-12.19-2.69-2.44-7.19-2.67-9.07-3.4l3.75,2.19-.51-.47,2.19,3.75-.23-.73c-3.32-10.38-19.74-5.94-16.39,4.52,1.09,3.42,3.23,5.95,6.68,7.13,1.96.67,4.32.8,5.32,1.22l-3.75-2.19.65.56-2.19-3.75-.03.08,1.16-4.29c-2.08,4.76-5.05,8.86-6.57,13.95-1.52,5.12-2.04,10.6-1.61,15.91.86,10.83,17.87,10.93,17,0h0Z"/><path class="cls-3" d="M424.21,343.21c.04-6.06,1.47-13.97-3.15-18.76-3.86-4-10.73-6.04-15.82-7.9-11.02-4.03-24.07-4.67-34.06,2.35-3.75,2.64-5.51,7.43-3.05,11.63,2.17,3.71,7.86,5.7,11.63,3.05,4.26-2.99,8.99-3.67,14.08-2.66,2.92.58,5.8,1.56,8.56,2.67,2,.8,5.98,2.1,6.96,3.28l-2.19-3.75c.84,2.79.05,7.18.03,10.1-.08,10.94,16.92,10.95,17,0h0Z"/><path class="cls-3" d="M397.78,350.7c-2.1-19.15-20.22-32.75-39.24-26-10.24,3.63-5.83,20.07,4.52,16.39,7.58-2.69,16.74.68,17.73,9.61.5,4.56,3.55,8.5,8.5,8.5,4.21,0,9-3.91,8.5-8.5h0Z"/><path class="cls-3" d="M378.82,385.27c1.72,8.5,7.98,15.6,16.03,18.68,1.01.39,2.19-.43,2.46-1.4.31-1.13-.38-2.07-1.4-2.46-6.76-2.59-11.81-8.83-13.23-15.89-.21-1.06-1.47-1.67-2.46-1.4-1.1.3-1.61,1.4-1.4,2.46h0Z"/><path class="cls-3" d="M354.67,350.01l-.13.09-1.01.27c-.28-.11-.55-.24-.81-.39l-.27-1.01c-.03-.23.42-.46-.08-.09-1.57,1.15-1.09,3.64,1.01,3.73s4.23.17,6.34.26l-1.41-3.41c-.55.68-1.1,1.35-1.65,2.03-1.09,1.34-.42,3.33,1.41,3.41s3.64.16,5.47.24l-1.01-3.73c-1.56.89-2.55,2.6-2.42,4.41.11,1.46,1.63,2.56,3.01,1.73.5-.3.09,0,0-.03-.16-.07.24.16.17.07.26.34.46.41.51.84.12,1.21-.97,2.53-1.6,3.46-.71,1.05,0,2.66,1.2,2.94,2.95.68,5.91,1.36,8.86,2.04,2.51.58,3.58-3.28,1.06-3.86-2.95-.68-5.91-1.36-8.86-2.04l1.2,2.94c1.5-2.2,2.93-5,1.61-7.64-1.12-2.23-3.91-3.54-6.18-2.17l3.01,1.73c-.03-.45.02-.71.44-.95,1.79-1.01.91-3.64-1.01-3.73-1.82-.08-3.64-.16-5.47-.24l1.41,3.41c.55-.68,1.1-1.35,1.65-2.03,1.08-1.33.42-3.34-1.41-3.41-2.11-.09-4.23-.17-6.34-.26l1.01,3.73c1.39-1.02,2.77-2.65,1.75-4.46-.83-1.47-3.09-2.15-4.3-.69-.68.83-.82,2.01,0,2.83.71.71,2.14.84,2.83,0h0Z"/><path class="cls-3" d="M410.45,318.67c4.18-.13,8.01,2.71,9.07,6.77l3.34-1.95c-1.85-1.49-4.01-2.28-6.04-3.47-2.17-1.26-2.78-3.05-2.66-5.49s.71-4.68.47-7.07c-.26-2.54-1.22-4.72-3.34-6.22-1.48-1.05-3.35.68-2.94,2.26.97,3.71,2.78,7.06,5.29,9.96.57.66,1.7.74,2.42.31.83-.49,1.05-1.37.92-2.26-.81-5.71-3.63-11.04-7.83-14.99-.84-.79-2.61-.83-3.14.4-1.46,3.39-3.32,6.62-5.61,9.52-.88,1.1-.72,2.96.88,3.34,2.5.59,4.67,2.66,4.99,5.29.22,1.8,2.68,2.93,3.73,1.01,2.33-4.28.83-9.89-3.4-12.37-1.37-.81-3.63.57-2.94,2.26,1.54,3.77,2.45,7.72,2.64,11.79.12,2.56,4.05,2.59,4,0-.11-5.34-.21-10.69-.32-16.03-.05-2.57-4.05-2.58-4,0,.11,5.34.21,10.69.32,16.03h4c-.21-4.42-1.12-8.75-2.79-12.85l-2.94,2.26c2.32,1.36,3.25,4.51,1.96,6.9l3.73,1.01c-.54-4.38-3.55-8.11-7.93-9.15l.88,3.34c2.52-3.18,4.63-6.59,6.24-10.33l-3.14.4c3.75,3.53,6.08,8.13,6.8,13.23l3.34-1.95c-2.05-2.37-3.47-5.17-4.26-8.19l-2.94,2.26c1.54,1.09,1.5,3.53,1.38,5.19-.18,2.54-.75,4.98-.33,7.53s1.88,4.35,3.9,5.69c1.84,1.22,4.08,1.81,5.81,3.2,1.48,1.2,3.88.13,3.34-1.95-1.49-5.72-7.01-9.89-12.93-9.71-2.57.08-2.58,4.08,0,4h0Z"/><path class="cls-3" d="M333.2,299.15c-2.42-2.78-4.84-5.55-7.27-8.33-2.06-2.35-4.19-4.66-6.81-6.41-4.9-3.28-12.23-3.82-16.1,1.32s-2.05,11.94,1.09,16.94c3.45,5.48,7.98,10.39,13.04,14.42,4.91,3.92,12.1,8.22,17.94,3.56.84-.67.7-2.12,0-2.83-.83-.83-1.98-.68-2.83,0-1.64,1.31-3.92.95-5.76.34-2.35-.78-4.44-2.24-6.36-3.77-4.26-3.37-8.1-7.33-11.24-11.76-2.69-3.78-5.73-9.08-3.2-13.72s8.09-3.33,11.57-.94c2.35,1.61,4.24,3.85,6.1,5.98,2.34,2.67,4.67,5.34,7,8.02,1.7,1.94,4.52-.9,2.83-2.83h0Z"/><path class="cls-3" d="M352.37,281.39c5.28-.54,10.85-1.02,15.94.84,3.75,1.37,7.12,4.25,8.18,8.2.66,2.49,4.52,1.43,3.86-1.06-1.32-4.95-5.27-8.62-9.89-10.56-5.71-2.41-12.06-2.03-18.08-1.41-1.07.11-2,.84-2,2,0,1,.92,2.11,2,2h0Z"/><path class="cls-3" d="M338.08,235.61c-5.02.32-10.04.64-15.07.96-1.08.07-2,.87-2,2,0,1.03.92,2.07,2,2,5.02-.32,10.04-.64,15.07-.96,1.08-.07,2-.87,2-2,0-1.03-.92-2.07-2-2h0Z"/><path class="cls-3" d="M259.07,202.31c-5,1.37-9.99,2.74-14.99,4.11-2.48.68-1.43,4.54,1.06,3.86,5-1.37,9.99-2.74,14.99-4.11,2.48-.68,1.43-4.54-1.06-3.86h0Z"/><path class="cls-3" d="M297.83,214.94c.48,4.92-2.34,9.5-6.3,12.25-4.68,3.26-10.5,4.34-16.05,5.06-1.07.14-2,.82-2,2,0,.97.92,2.14,2,2,6.47-.84,13.3-2.04,18.67-6.04,4.73-3.53,8.28-9.18,7.68-15.27-.11-1.07-.84-2-2-2-1,0-2.11.92-2,2h0Z"/><path class="cls-6" d="M423.27,335.99c-3.71-.4-7.47-.13-11.1.7-1.02.24-1.72,1.46-1.4,2.46.35,1.07,1.37,1.65,2.46,1.4.85-.2,1.7-.35,2.56-.49.47-.07-.17.01.26-.04.23-.03.47-.05.7-.08.43-.04.87-.08,1.3-.1,1.74-.1,3.48-.05,5.21.14,1.04.11,2.04-1,2-2-.05-1.18-.88-1.88-2-2h0Z"/><path class="cls-6" d="M381.74,435.81c9.6,3.08,19.76-4.7,19.49-14.71-.09-3.3-2.91-6.79-6.5-6.5-2.53.21-4.86.69-7.28,1.48-1.76.57-3.57,1.48-5.4.81-3.34-1.22-5.48-6.03-7.03-8.88-3.99-7.35-15.22-.8-11.23,6.56,2.82,5.19,6.36,10.65,11.69,13.55,2.48,1.34,5.32,2.09,8.15,2.07,3.94-.03,7.27-2.26,11.1-2.58l-6.5-6.5c.05,1.91-1.4,2.7-3.03,2.18-7.98-2.56-11.4,9.98-3.46,12.54h0Z"/><path class="cls-6" d="M394.17,407.56c.57,3.23-.89,7.25-3.54,9.26-2.8,2.11-4.25,5.61-2.33,8.89,1.61,2.75,6.08,4.46,8.89,2.33,7.69-5.81,11.19-14.4,9.51-23.94-.61-3.46-4.84-5.41-8-4.54-3.65,1-5.15,4.53-4.54,8h0Z"/><path class="cls-6" d="M401.62,428.62c9.17-2.4,16.03-11.5,15.17-21.07l-12.77,1.73c.26,1.53.66,3.29.32,4.82-.05.22-.19.73-.21.85l-.58.59c1.04-.49,1.04-.57-.03-.24-8.12,1.98-4.68,14.52,3.46,12.54,4.45-1.09,7.77-4.47,9.37-8.69s.97-8.88.22-13.33c-1.21-7.16-13.43-5.57-12.77,1.73.35,3.91-1.59,7.48-5.63,8.54-8.09,2.12-4.66,14.66,3.46,12.54h0Z"/><path class="cls-6" d="M408.44,400.18c-5.47,1.49-11.41.52-16.07-2.73-4.35-3.04-7.12-7.92-7.88-13.12-.28-1.9-3.17-1.09-2.89.8.87,5.99,4.3,11.45,9.26,14.92,5.29,3.69,12.2,4.72,18.38,3.04,1.86-.51,1.07-3.4-.8-2.89h0Z"/><path class="cls-6" d="M265.47,287.87c7.38-1.83,15.43-.83,22.03,3,2.98,1.73,5.75,4.13,7.21,7.33s1.36,6.87-.64,9.74c-1.1,1.59,1.49,3.09,2.59,1.51,2.28-3.27,2.56-7.64,1.23-11.35-1.41-3.92-4.4-6.98-7.86-9.2-7.42-4.77-16.86-6.03-25.36-3.92-1.87.46-1.08,3.36.8,2.89h0Z"/><path class="cls-6" d="M205.55,242.57c-1.18,5.15.68,10.89,4.85,14.2.63.5,1.5.62,2.12,0,.52-.52.64-1.61,0-2.12-3.38-2.69-5.03-7.15-4.08-11.28.18-.79-.24-1.62-1.05-1.85-.76-.21-1.66.25-1.85,1.05h0Z"/><path class="cls-2" d="M365.42,297.87c-2.14-.23-.98-.11-.42.03,1.03.26-.7-.23-.65-.3,0,0,.96.51.95.56,0-.02-1.43-1.25-.42-.27.59.57.17.7-.25-.44.09.25.34.56.49.78.44.65-.46-1.61-.19-.5.09.36.19.71.25,1.07.64,3.61,5.25,5.98,8.61,4.89,3.88-1.26,5.58-4.74,4.89-8.61-.48-2.71-2.11-5.52-4.17-7.34-2.67-2.38-5.56-3.49-9.09-3.87-1.67-.18-3.81.91-4.95,2.05-1.21,1.21-2.13,3.21-2.05,4.95s.68,3.69,2.05,4.95c1.45,1.33,3,1.84,4.95,2.05h0Z"/><path class="cls-2" d="M285.89,275.62c-3.34-1.45-6.33-3.22-8.9-5.83-1.93-1.95-5.37-5.62-4.98-8.58l-2.05,4.95c3.51-4,13.63,4.36,16.12,6.37,2.96,2.39,6.99,2.84,9.9,0,2.48-2.43,2.94-7.53,0-9.9-5.47-4.41-11.17-8.91-18.2-10.39-6-1.26-15.47-.84-18.81,5.44-3.16,5.94,1.05,13.08,4.6,17.83,3.97,5.32,9.16,9.55,15.26,12.19,3.49,1.51,7.47,1.01,9.58-2.51,1.76-2.94.95-8.08-2.51-9.58h0Z"/><path class="cls-2" d="M278.44,275.48h1.67c.96.04,1.86-.16,2.7-.6.87-.28,1.62-.76,2.25-1.45.68-.63,1.17-1.38,1.45-2.25.44-.83.64-1.73.6-2.7l-.25-1.86c-.33-1.19-.93-2.22-1.8-3.09l-1.42-1.09c-1.09-.63-2.27-.95-3.53-.96h-1.67c-.96-.04-1.86.16-2.7.6-.87.28-1.62.76-2.25,1.45-.68.63-1.17,1.38-1.45,2.25-.44.83-.64,1.73-.6,2.7l.25,1.86c.33,1.19.93,2.22,1.8,3.09l1.42,1.09c1.09.63,2.27.95,3.53.96h0Z"/><path class="cls-2" d="M286.41,211.88c-6.92,2.62-13.95,4.23-21.34,4.59-8.97.44-9.02,14.44,0,14,8.62-.42,16.99-2.03,25.07-5.09s4.73-16.7-3.72-13.5h0Z"/><path class="cls-2" d="M254.89,197.13c-5.29.85-10.59,1.7-15.88,2.55-4.44.71-2.55,7.46,1.86,6.75,5.29-.85,10.59-1.7,15.88-2.55,4.44-.71,2.55-7.46-1.86-6.75h0Z"/><path class="cls-2" d="M206.52,220.19c5.59-.15,10.9.93,15.91,3.43,4.02,2,7.57-4.03,3.53-6.04-6.1-3.04-12.62-4.57-19.44-4.38-4.5.12-4.51,7.12,0,7h0Z"/><path class="cls-2" d="M228.27,230.17c4.5,0,4.51-7,0-7s-4.51,7,0,7h0Z"/><path class="cls-2" d="M217.39,250.24l5.98.35-2.47-5.97c-2.74,2.5-3.57,6.68-1.87,10s5.56,4.78,9.24,4.26c1.87-.26,2.9-2.65,2.44-4.31-.55-2.02-2.43-2.71-4.31-2.44-1.7.24-1.28-1.9-.56-2.56,2.37-2.17.38-5.81-2.47-5.97l-5.98-.35c-4.5-.26-4.49,6.74,0,7h0Z"/><path class="cls-2" d="M228.97,273.22c5.69,3.22,13.44,9.39,20.38,6.59,6.34-2.56,6.29-9.81,5.46-15.51-.65-4.44-7.39-2.55-6.75,1.86.56,3.88.53,8.62-4.87,6.77-3.74-1.28-7.26-3.81-10.69-5.75-3.93-2.22-7.46,3.83-3.53,6.04h0Z"/><path class="cls-2" d="M318.7,324.58c10.77,3.16,18.5,12.94,18.97,24.18.19,4.49,7.19,4.51,7,0-.6-14.39-10.27-26.87-24.11-30.93-4.33-1.27-6.18,5.48-1.86,6.75h0Z"/><path class="cls-2" d="M381.3,340.62c1.49-.06,2.98-.14,4.47-.19,1.34-.04,1.22.32.49-1.53s-.31-1.43-1.7-1.3c-3.41.32-4.82,4.54-1.77,6.52,1.91,1.24,2.96,3.2,3.02,5.47.12,4.5,7.12,4.51,7,0-.13-4.8-2.47-8.9-6.49-11.52l-1.77,6.52c3.81-.36,8.2-2.34,7.39-6.99-.9-5.22-6.8-4.15-10.65-3.99-4.49.19-4.51,7.19,0,7h0Z"/><path class="cls-2" d="M406.08,377.36c.91,3.6,1.83,7.21,2.74,10.81,1.11,4.36,7.86,2.51,6.75-1.86-.91-3.6-1.83-7.21-2.74-10.81-1.11-4.36-7.86-2.51-6.75,1.86h0Z"/><path class="cls-2" d="M314.03,255.18c2.02-11.7,16.74-10.03,20.95-.69,4.53,10.03-2.78,19.87-7.42,28.37-2.16,3.96,3.88,7.49,6.04,3.53,3.8-6.96,8.73-14.07,9.63-22.15.78-6.96-1.26-14.27-6.46-19.14-9.67-9.05-27.03-5.99-29.49,8.22-.76,4.41,5.98,6.3,6.75,1.86h0Z"/></g><g id="Layer_5"><g id="Layer_8"><path class="cls-4" d="M321.38,365.74c-5.1-7.64-12.24-16.53-20.88-20.2-2.54-1.08-5.32-1.04-7.36.57-2.4.48-4.71,2.16-5.05,4.6-.11.81-.16,1.6-.18,2.38-1.34-.1-2.74.16-4.06.73-.19.08-.38.14-.57.21,0-.57-.06-1.15-.21-1.72-.94-3.42-4.59-5.45-8-4.54-5.27,1.4-10.09,4.25-13.8,8.25-1.09,1.17-1.71,2.65-1.82,4.16-5.94,1.55-7.66,11.17-.5,12.44,5.83,1.03,10.26-.57,15.51-2.96,5.11-2.33,10.76-2.38,15.95-4.6.1-.04.2-.1.29-.15.34.67.7,1.34,1.08,2-3.23,1.74-6.16,3.97-8.63,6.78-2.32,2.64-2.6,6.6,0,9.19,2.36,2.36,6.87,2.65,9.19,0,.61-.7,1.25-1.38,1.93-2.02.94-.88.79-.77,1.68-1.38.77-.52,1.57-1.01,2.39-1.44.39-.21.78-.4,1.18-.58,2.97,3.49,6.23,6.74,9.76,9.66.42.34.84.7,1.26,1.04-1.85.93-3.17,2.77-3.02,5.54.33,5.96.39,11.92.2,17.89-.28,8.37,12.72,8.36,13,0,.2-5.97.13-11.93-.2-17.89-.03-.6-.14-1.15-.29-1.67.56-.11,1.13-.28,1.71-.53,9.4-4.04,3.35-19.88-.58-25.76Z"/><path class="cls-4" d="M238.52,382.92l-15.05,4.55c-4.45,1.35-8.77,3.01-13.48,2.69-8.35-.57-8.32,12.44,0,13,10.58.72,22.02-4.69,31.98-7.71,7.99-2.42,4.58-14.97-3.46-12.54Z"/><path class="cls-4" d="M191.18,320.15c-1.13-1.13-2.98-1.98-4.6-1.9-3.52.16-6.5,2.86-6.5,6.5v3.83c0,1.67.73,3.42,1.9,4.6,1.13,1.13,2.98,1.98,4.6,1.9,3.52-.16,6.5-2.86,6.5-6.5v-3.83c0-1.67-.73-3.42-1.9-4.6Z"/><path class="cls-4" d="M123.59,289.73c-3.52.16-6.5,2.86-6.5,6.5v8.51c0,3.4,2.99,6.66,6.5,6.5,3.52-.16,6.5-2.86,6.5-6.5v-8.51c0-3.4-2.99-6.66-6.5-6.5Z"/><path class="cls-4" d="M185.2,338.91c-4.55-6.51-10.44-8.75-18.11-9.73-6.78-.87-16.07-2.1-22.57.61-.36.15-.7.32-1.02.51-1.41-8.57-5.24-18.47-13.19-19.82-5.81-.99-10.46,3.88-10.43,9.5.02,3.36,1.34,6.63,3.2,9.54,1.4,7.08,5.82,12.33,12.85,14.95,1.75.65,3.52.3,4.97-.63.42.55.89,1.08,1.44,1.56,5.25,4.56,14.68,4.97,21.26,5.06,1.96.03,3.45-.67,4.49-1.74,3.83,0,7.66,0,11.49-.01,4.62,0,8.51-5.64,5.61-9.78Z"/><path class="cls-4" d="M215.1,361.24h-12.77c-4.97,0-6.99,4.59-6.06,8.32-1.04-.85-2.1-1.68-3.28-2.31-6-3.2-12.83-4.55-19.58-3.7-3.51.44-6.46,2.67-6.5,6.5-.03,3.17,3.02,6.94,6.5,6.5,6.22-.79,11.56.49,16.58,4.3,2.47,1.88,4.56,3.68,7.58,4.66,2.95.96,6.06,1.07,8.99,2.13,7.88,2.85,11.28-9.71,3.46-12.54-1.13-.41-2.35-.65-3.59-.86h8.67c8.36,0,8.38-13,0-13Z"/><path class="cls-4" d="M208.29,340.81h-7.24c-3.4,0-6.66,2.99-6.5,6.5.16,3.52,2.86,6.5,6.5,6.5h7.24c3.4,0,6.66-2.99,6.5-6.5-.16-3.52-2.86-6.5-6.5-6.5Z"/><path class="cls-9" d="M125.91,324.14c-.1-.11-.16-.19-.23-.26-.23-.34-.44-.69-.63-1.05-.13-.21-.2-.31-.24-.36,0-.07-.02-.21-.09-.48-.01-.05-.21-1.01-.27-1.19,0-.72.03-2.08-.11-1.13.48-3.35-.82-7.15-4.54-8-3.07-.7-7.49.94-8,4.54-.91,6.43.57,12.21,4.93,17.12,2.33,2.63,6.81,2.38,9.19,0,2.61-2.61,2.34-6.56,0-9.19Z"/><path class="cls-9" d="M310.6,395.48c-1.39-2.24-1.63-3.78-.78-6.46,1.07-3.34-1.25-7.09-4.54-8-3.08-.85-6.09.71-7.5,3.37-1.16-1.63-3.01-2.72-5.21-2.72h-9.36c-2.18,0-4.3,1.24-5.5,3.05-.29-.04-.58-.07-.88-.07h-10.22c-3.4,0-6.66,2.99-6.5,6.5.16,3.52,2.86,6.5,6.5,6.5h10.22c.41,0,.81-.05,1.21-.13-.04.8-.1,1.6-.07,2.36.1,2.16.51,4.17,1.45,6.12,1.86,3.84,5.19,5.89,9.36,6.25,3.5.3,6.5-3.21,6.5-6.5,0-2.98-1.87-5.12-4.39-6.03,0-.11.04-.27.06-.75.07-1.45.03-2.88-.1-4.31h1.72c1.4,0,2.77-.51,3.89-1.35.28,3.07,1.26,6.08,2.91,8.73,1.85,2.98,5.8,4.14,8.89,2.33,2.97-1.74,4.2-5.9,2.33-8.89Z"/><path class="cls-9" d="M340.91,383.5c-1.96-2.89-2.51-5.17-2.26-8.52.26-3.51-3.17-6.5-6.5-6.5-3.73,0-6.24,2.98-6.5,6.5-.35,4.74.8,9.6,3.19,13.71-.07.06-.14.1-.2.16-9.02,7.95-6.64,19.74-7.35,30.4-.56,8.35,12.44,8.32,13,0,.45-6.63-2.11-16.23,3.55-21.21,2.2-1.93,2.5-4.31,1.7-6.35,2.22-1.98,3.13-5.62,1.38-8.2Z"/><path class="cls-9" d="M285.23,414.52c-.68-2.49-2.65-4.08-4.95-4.56-.22-.27-.45-.54-.62-.76-1.16-1.48-2.54-2.6-4.3-3.32-1.49-.6-3.07-.84-4.68-.83-.51,0-1.03.07-1.54.08-.48,0-.64.05-.67.08-.07-.04-.22-.11-.55-.22-3.32-1.15-7.11,1.31-8,4.54-.98,3.58,1.21,6.84,4.54,8,1.63.56,3.36.66,5.07.59.08,0,.26,0,.48.02.71,1.33,2.57,2.83,3.65,3.45,2.23,1.28,4.56,1.47,7.04.94,3.43-.74,5.43-4.75,4.54-8Z"/><path class="cls-9" d="M307.69,421.36c-.26-2.27-.51-4.55-.77-6.82-.2-1.78-.59-3.28-1.9-4.6-1.13-1.13-2.98-1.98-4.6-1.9-3.19.14-6.91,2.88-6.5,6.5.26,2.27.51,4.55.77,6.82.2,1.78.59,3.28,1.9,4.6,1.13,1.13,2.98,1.98,4.6,1.9,3.19-.14,6.91-2.88,6.5-6.5Z"/><path class="cls-3" d="M183.93,269.63c-3.41-2.73-8.63-2.45-12.72-2.03-9.52.97-18.07,7.86-27.62,7.23-3.42-.23-5.43,1.82-6.05,4.35-1.61,1.6-2.13,4.05-1.79,6.46,1.44,10.34,15.92,7.32,22.82,6.2,8.35-1.36,21.49-3.83,26.75-11.35,2.42-3.46,1.98-8.16-1.39-10.86Z"/><path class="cls-3" d="M248.06,296.88c-.59-2.81-3.69-5-6.43-5-3.87,0-6.07,3-6.5,6.5-.85,6.88-.53,18.61,7.49,21.3,4.15,1.39,8.27-.29,10.78-3.76,1.19-1.64,1.88-3.44,2.16-5.45.25-1.86-.07-3.88.41-5.66,1.45-5.42-3.7-8.75-7.91-7.93Z"/><path class="cls-3" d="M113.96,280.49c-.16-1.04-.66-1.93-1.36-2.65,2.54-5.34-3.77-11.95-9.15-8.4-4.72,3.11-9.58,5.95-14.61,8.51-2.02,1.03-3.21,3.42-3.22,5.61-.06,9.65-1.08,26.87,13.64,25.1,12.49-1.5,16.25-17.9,14.7-28.17Z"/><path class="cls-6" d="M110.66,313.48s-.06-.03-.09-.05c0,0,0,0,0,0,.03.02.06.03.08.05Z"/><path class="cls-6" d="M111.38,313.91c-.24-.14-.48-.29-.72-.43.31.21.37.4-.08-.05h0s-.06-.04-.09-.05c.03.02.06.03.09.05-.25-.24-.49-.49-.73-.73-.02-.03-.03-.03-.06-.05,0-.03,0-.04-.02-.08-.11-.27-.31-.59-.48-.84-.06-.3-.16-.67-.27-.94,0-.02-.01-.02-.02-.03,0-.01,0-.02,0-.04-.2-2.78-1.98-5.49-4.65-6.28-1.05-1.15-2.58-1.92-4.6-1.92-7.2,0-8.21,9.62-3.01,12.31,1.26,4.31,4,8.04,8.08,10.33,2.97,1.66,7.23.81,8.89-2.33,1.62-3.07.83-7.12-2.33-8.89Z"/><path class="cls-6" d="M117.09,281.34c-.12-1.34-1.06-2.5-2.5-2.5-1.26,0-2.62,1.15-2.5,2.5.59,6.58-.55,13.21-3.5,19.13-.6,1.21-.32,2.71.9,3.42,1.11.65,2.82.32,3.42-.9,3.33-6.69,4.85-14.2,4.18-21.65Z"/><path class="cls-6" d="M240.55,291.11c-1.63-1.42-3.41-2.47-5.44-3.23-.58-.22-1.24-.11-1.8.19-.47-.27-.98-.5-1.56-.66-.33-.09-.67-.14-1.01-.17-.02-3.23-2.11-6.45-6.28-6.45-8.03,0-8.36,11.96-.97,12.93-.87,5.93-1.2,11.82-.76,17.83.26,3.5,2.8,6.5,6.5,6.5,3.32,0,6.76-2.98,6.5-6.5-.33-4.52-.32-9.06.21-13.55.07-.11.14-.22.21-.32.02-.02.04-.05.06-.07.13-.15.27-.3.41-.45.25-.26.51-.51.79-.74,0,0,.02-.02.03-.03.14-.1.29-.2.43-.3.32-.21.65-.4.99-.56.04-.02.14-.07.23-.11.01,0,.03-.01.04-.01.11-.04.21-.08.32-.11.84-.28,1.5-.87,1.75-1.75.22-.81.02-1.86-.64-2.43Z"/><path class="cls-6" d="M291.95,324.53c-4.69-5.06-10.38-9.78-17.73-9.33-1.43.09-2.77.58-3.87,1.38-.31-.69-.73-1.36-1.29-1.95-.19-.2-.38-.4-.56-.61-.33-.53-.64-1.07-.96-1.6-.03-.07-.06-.12-.08-.17-.06-.17-.13-.34-.18-.52-.2-.62-.34-1.25-.46-1.88-.63-3.35-4.85-5.56-8-4.54-3.58,1.16-5.22,4.41-4.54,8,.75,3.97,2.82,7.6,5.58,10.52,2.13,2.25,6.06,2.5,8.51.62,1.06,2.22,3.31,3.92,5.85,3.76,3.69-.23,6.16,2.95,8.53,5.52,5.7,6.15,14.87-3.06,9.19-9.19Z"/><path class="cls-6" d="M303.89,337.03c-.2-.85-.59-1.58-1.16-2.21-.46-.71-1.07-1.27-1.82-1.67-1.51-.8-3.34-1.2-5.01-.66-.52.22-1.04.44-1.55.66-.98.58-1.75,1.36-2.33,2.33-.43.56-.86,1.13-1.29,1.69-.48.75-.73,1.55-.77,2.42-.19.86-.15,1.73.12,2.59.2.85.59,1.58,1.16,2.21.46.71,1.07,1.27,1.82,1.67,1.51.8,3.34,1.2,5.01.66.52-.22,1.04-.44,1.55-.66.98-.58,1.75-1.36,2.33-2.33.43-.56.86-1.13,1.29-1.69.47-.75.73-1.55.77-2.42.19-.86.15-1.73-.12-2.59Z"/><path class="cls-6" d="M377.78,428.2c-.54-.37-1.13-.68-1.76-.93-3.49-1.39-5.49-5.93-7.32-8.9-2.5-4.05-5.24-7.41-9.03-10.29-2.8-2.13-7.27-.44-8.89,2.33-.91,1.56-1.07,3.14-.7,4.6-.58-.02-1.18,0-1.77.09-4.1.57-7.24,3.35-9.55,6.62-1.75-.28-3.63.21-5.26,1.87-1.43,1.46-3.1.9-4.94,1.68-2.52,1.06-4.45,3.5-4.45,6.32,0,4.61,3.87,8.07,8.09,9.05,4.62,1.07,9.15-.89,12.32-4.23.46-.48.89-1.12,1.32-1.82,5.68,2.74,12.12,3.44,18.13,1.25.44-.16.86-.36,1.26-.59,2.07,1.87,4.4,3.38,7.23,4.52,1,.81,2.32,1.32,3.97,1.32,7.89,0,8.35-11.55,1.36-12.87Z"/><path class="cls-4" d="M337.18,400.2c-1.39,2.22-3.7,3.34-4.65,6.02-1.05,2.94-.56,6.25-1.04,9.29-.22,1.4-.47,4.29-1.82,5.13-.6.37-2.88.47-4.27.06-.8-.71-1.24-1.6-1.33-2.67-.77-2.98-3.07-4.43-5.51-4.6-.36-3.51-1.62-6.95-4-9.59-1.52-1.69-3.51-2.96-5.67-3.67-1.52-.5-3.1-.4-4.66-.35-.35-1.26-.89-2.4-1.67-3.47-1.85-2.51-4.36-3.57-7.43-3.71-5.78-.27-7.55,5.85-5.35,9.79-2.91.33-5.46,2.38-5.16,6.19.14,1.86.19,3.86.28,5.88-.27-.03-.55-.05-.84-.05-8.36,0-8.38,13,0,13,1.43,0,2.61-.38,3.55-1.01,2.06,3.27,5.48,5.41,9.23,6.49,6.08,1.75,12.71,1.01,17.16-2.46.96.72,2.19,1.19,3.69,1.24.32.01.64.02.96.03,4.88,2.6,11.31,2.97,16.41.71,4.68-2.07,7.32-6.56,8.55-11.36.68-2.66.93-5.47,1.18-8.19.26-2.94,2.03-3.59,3.62-6.14,4.45-7.11-6.79-13.64-11.23-6.56ZM306.11,420.96c.1-.89-2.43-.09-3.41-.17-1.15-.09-3.18-.19-4.01-1.1-.46-.5-.38-2.23-.44-2.98-.12-1.5-.23-3-.35-4.5,1.17.28,2.43.37,3.73.36,1.32-.01,2.76-.58,3.47.23.9,1.03.61,3.14.53,4.31-.09,1.27.14,2.34.58,3.22-.04.21-.07.42-.09.63Z"/><path class="cls-4" d="M279.49,399.82c-1.57-3.11-5.11-4.49-8.46-3.71-1.31.31-2.4.94-3.6,1.53-1.76.86-1.37.95-2.77.3-4.7-2.19-5.94-9.08-5.51-13.58.34-3.5-3.23-6.5-6.5-6.5-3.79,0-6.16,2.99-6.5,6.5-.17,1.78-.14,3.56.05,5.33-3.46-.76-6.51,1.4-7.65,4.62-1.9,5.33-2.34,11.62,2.11,15.89,4.07,3.9,10,3.36,15.19,3.37,2.2,0,4.06-1.2,5.22-2.88.56.21,1.12.4,1.69.53,2.21.51,4.54.36,6.7-.27,1-.29,1.93-.85,2.87-1.36,4.53.77,9.94-4.25,7.16-9.77Z"/><path class="cls-4" d="M291.62,366.49c-4.11-9.76-20.87-3.41-27.24.25-4.83,2.77-3.54,8.68,0,11.08.02.32.05.63.1.92-5.71,2.34-4.87,12.52,2.55,12.52,4.47,0,6.55-3.72,6.25-7.17,4.13-.14,8.06-1.97,11.35-4.46,4.02-3.03,9.38-7.47,6.99-13.14Z"/><path class="cls-9" d="M265.39,324.21l-9.86-6.63c-3.59-2.42-8.4.09-9.55,3.88-.04.12-4.74-.55-4.89-1.31-.78-3.86-5.25-5.37-8.65-4.32-1.34-.89-2.91-1.36-4.55-1.36-1.02-1.77-1.88-3.61-2.68-5.5-.78-1.83-2.08-2.79-3.55-3.11,2.01-2.09,3.27-4.89,3.43-8.16.27-5.59-2.45-10.39-6.55-14.2.34-1.79-.13-3.74-1.84-5.41-7.49-7.35-15.73-13.37-26.75-11.34-.16.03-.31.07-.46.11-1.04-1.23-2.58-2.1-4.62-2.22-3.46-.2-6.93-.39-10.39-.59-.44-.02-.94-.02-1.47,0-1.03-1.11-2.47-1.89-4.34-2.05-8.2-.7-16.5-1.84-24.74-1.54-8.66.31-17.18,1.87-25.87,1.09-3.24-.29-5.21,1.51-5.92,3.85-2.94.44-5.22,3.68-5.25,6.48-.04,3.88,3.03,6.06,6.5,6.5.27.03.54.06.82.08-1.25,1.59-1.64,3.78-1.32,5.93.52,3.4-.09,7.03-1.6,10.11-1.43,2.91-4,4.83-5.65,7.57-4.41,7.29.51,13.97,6.65,17.98,7.02,4.59,13.54-6.66,6.56-11.23-.86-.56-1.31-.64-1.49-.63.12-.06.34-.25.6-.73.47-.87,1.43-1.69,2.03-2.49,1.53-2.02,2.71-4.18,3.68-6.49.41,2.67.87,5.33,1.26,7.96.51,3.5,4.9,5.36,8,4.54,3.73-.98,5.05-4.54,4.54-8-1.05-7.17-2.52-14.35-1.72-21.61.23-2.13-1.01-4.04-2.75-5.24.74-.13,1.49-.25,2.24-.35,7.94-1.06,16.12-.95,24.04.27,1.21.19,2.4.12,3.5-.17,4.3,1.23,9.07,1.46,13.74,1.55-4.4,3.68-6.49,9.71-4.24,15.08-4.6-2.08-9.61-3.28-14.63-3.92-2.94-.38-5.49,2.2-6.26,4.93-4.56-2.52-11.72.9-9.56,7.08,2.57,7.32,8.32,11.47,15.36,14.18,4.44,1.71,9.05,2.75,13.77,3.32,3.01.36,6.6.9,9.68.11,1.02.92,2.43,1.52,4.21,1.54,2.93.04,6.01.1,8.92.77.7.28,1.38.6,1.65.47.02,0,.03.01.05.02-.4.81-2.49,1.84-3.02,2.16-4.96,3.04-10.2,4.05-15.07.39-6.68-5.04-13.17,6.25-6.56,11.23,6.45,4.86,15.47,5.19,23.22,2.32-.46.35-.9.71-1.32,1.13-3.77,3.73-4.5,8.91-4.1,13.93-.05.02-.11.04-.16.06-.66-2.51-2.67-4.59-6.04-4.55-13.4.15-27.11-.62-39.2-6.95-7.41-3.88-13.98,7.34-6.56,11.23,8.49,4.44,17.55,6.74,26.84,7.85-.54,4.19,2.71,8.93,7.93,7.32,4.44-1.37,8.15,1.61,11.51,4.24,3.51,2.75,9.77,2.43,10.86-2.87.04-.19.6-2.55.91-4.07.24,0,.48-.02.72-.02,3.29-.02,6.61.14,9.88.58,3.02.41,5.98-.53,7.42-3.16,1.61.64,3.32.99,5.08,1.15-2.93,3.11-5.39,7.77-5.63,11.97-.82,1.33-1.55,2.75-2.16,4.27-.56,1.4-.38,2.92.27,4.26-1.58,1.97-1.86,4.9-.84,7.22-.3.13-.61.26-.91.4-.98.45-1.23,1.87-.72,2.74.59,1.01,1.75,1.17,2.74.72.61-.28,1.23-.56,1.86-.82.78.34,1.67.56,2.7.56,1.9,0,3.36-.67,4.4-1.71,1.19.52,2.62.65,4.25.15,7.78-2.37,15.71-5.49,23.73-6.83,2.6-.43,4.03-1.98,4.51-3.85,1.59.42,3.23.6,4.87.52-.82,2.9-.76,6.01.37,8.86.69,1.74,1.63,3.32,2.93,4.68.68.72,1.47,1.45,2.4,1.8,1.19.45,2.67.14,3.28-1.07.49-.96.25-2.17-.72-2.74-.44-.26-.98-.32-1.49-.2-.13-.11-.26-.22-.38-.34-.23-.23-.46-.47-.67-.72-.02-.03-.15-.18-.17-.21-.06-.08-.12-.16-.18-.24-.38-.54-.71-1.11-1-1.7-.04-.09-.08-.17-.12-.26,0-.02-.09-.22-.11-.26-.12-.31-.22-.62-.31-.94-.08-.28-.16-.57-.22-.86-.03-.16-.07-.32-.09-.48,0-.04-.03-.18-.04-.25-.07-.59-.09-1.18-.07-1.78,0-.26.03-.53.06-.79,0-.07.03-.21.03-.24.03-.16.06-.32.09-.48.07-.32.15-.64.25-.95.04-.13.08-.25.12-.37,0,0,.23-.58.09-.26.15-.35.23-.73.22-1.09,3-1.26,4.84-4.51,3.95-7.78-.9-3.29-4.64-5.61-8-4.54-1.25.4-1.91.19-3.06-.4-.67-.35-1.3-.79-1.9-1.24.02.02-.78-.81-1.15-1.1-.63-1.31-1.63-2.39-2.9-3.05,4.8-.63,9.56-1.55,14.25-2.77,1.57-.41,2.7-1.21,3.45-2.22,3.68-.21,7.16-1.27,10.29-3.03,1.77.99,3.89,1.48,6.29,1.28,6.35-.52,10.33-6.52,10.52-12.52.47-14.73-15.24-20.57-27.52-20.08ZM159,301.78c2.82.5,5.59,1.4,8.17,2.66-2.78-.55-5.75-1.39-8.17-2.66ZM201.21,333.17c.11.28.22.56.36.83-.8.14-1.58.31-2.35.53.69-.43,1.35-.88,2-1.36ZM204.87,351.87c-1.13-.15-2.28-.29-3.43-.41-.17-1.58-.2-3.2.45-4.07.37-.5,1.7-.7,3.11-.78-.36,1.75-.41,3.54-.13,5.27ZM213.32,310.52s0,0,0,0c-.15-.22-.3-.43-.46-.65.27-.04.55-.06.83-.1-.14.24-.26.49-.36.74ZM277.11,340.21c.02-.26.01-.52,0-.78.38.29.69.59.96.9-.32-.07-.64-.11-.96-.13Z"/><path class="cls-9" d="M332.09,367.4c-1.98-2.05-3.04-4.67-4.58-7.04-1.64-2.52-3.59-4.6-5.82-6.59-5.2-4.63-10.55-9.06-16.08-13.29-2.81-2.15-7.25-.41-8.89,2.33-1.99,3.32-.44,6.77,2.33,8.89,5.04,3.85,10.04,7.97,14.66,12.32,3.83,3.6,5.52,8.75,9.19,12.56,5.82,6.03,15.01-3.17,9.19-9.19Z"/><path class="cls-9" d="M353.01,390.71c-3.88-4.97-11.26-10.79-16.88-4.52-1.57,1.74-1.97,3.72-1.61,5.53-6.4,1.81-5.78,12.74,1.9,12.74,4.05,0,6.14-3.05,6.27-6.2,1.84,2.29,2.82,5.41,2.07,8.07-.02.06-.02.11-.04.17-6.84,1.45-6.35,12.85,1.49,12.85,3.56,0,5.6-2.35,6.13-5.05,2.18-.33,4.17-1.74,4.95-4.51,1.91-6.81,0-13.6-4.28-19.08Z"/><path class="cls-9" d="M310.69,409.57c-1.16.05-1.9.88-2,2,0,.1-.03.21-.03.31,0-.05,0-.08,0-.12,0,.02,0,.04,0,.05-.04.22-.09.44-.16.66-.06.2-.12.4-.2.6,0,.01-.01.03-.02.05.02-.04.04-.08.06-.14-.04.09-.09.19-.13.29,0,0,0,0,0,.01,0,.01,0,.02,0,.01-.19.39-.4.76-.64,1.11-.04.06-.09.13-.13.19,0,.01-.02.02-.03.03-.13.16-.27.32-.42.47-.15.15-.3.3-.45.44-.08.07-.16.14-.24.21-.01.01-.03.02-.04.04-.31.25-.68.46-1.03.64-.19.1-.38.18-.57.27.6-.3-.02,0-.21.06-.43.14-.88.24-1.33.3-.46.06-.97.54-1.2.92-.25.43-.36,1.06-.2,1.54.16.48.46.95.92,1.2.51.27.98.28,1.54.2,2.15-.3,4.22-1.48,5.7-3.05,1.63-1.74,2.6-3.9,2.81-6.27.09-1.05-.98-2.05-2-2Z"/><path class="cls-9" d="M308.66,411.77c.02-.17.02-.41,0,0h0Z"/><path class="cls-9" d="M308.29,413.12c-.05.1-.07.16-.08.17,0,0,0,0,0-.01.01-.03.05-.1.07-.16Z"/><path class="cls-4" d="M187.25,338.33c-.42-2.76-2.86-4.46-5.12-5.73-4.77-2.7-10.24-3.62-15.64-2.88-1.07.15-1.66,1.52-1.4,2.46.32,1.15,1.39,1.54,2.46,1.4.12-.02.25-.02.37-.04.14,2.3,2.8,4.03,4.58,5.13,2.15,1.33,4.47,2.39,6.87,3.21.55,1,.99,2.08,1.28,3.21.37,1.41,2.33,2,3.34.88,1.88-2.08,3.69-4.69,3.25-7.64ZM183.21,338.57c.25.58.17,1.22-.09,1.84-.12-.24-.26-.47-.39-.71-.03-.44-.05-.88-.08-1.32-.01-.26-.07-.5-.17-.73.3.27.57.57.72.93Z"/><path class="cls-4" d="M147.07,339.95l-9.26-2.88c-1-.31-2.23.37-2.46,1.4-.25,1.09.33,2.13,1.4,2.46l9.26,2.88c1,.31,2.23-.37,2.46-1.4.25-1.09-.33-2.13-1.4-2.46Z"/><path class="cls-4" d="M164.46,347.96c-3.68.42-7.38.51-11.08.29-1.05-.06-2.05.96-2,2,.05,1.14.88,1.93,2,2,3.69.22,7.4.12,11.08-.29,1.04-.12,2.05-.84,2-2-.04-.98-.89-2.13-2-2Z"/><path class="cls-4" d="M176.53,300.75c-.81-.66-2.05-.85-2.83,0-.67.73-.86,2.12,0,2.83.3.25.59.51.86.8.11.12.22.25.32.38.05.08.11.16.17.24.22.33.41.67.58,1.02.03.07.06.13.09.2.06.18.13.35.19.53.11.35.2.71.27,1.08,0,.05.01.21.04.28-.03-.11-.03-.37,0-.11,0,.04,0,.07,0,.11,0,.01,0,.03.02.04,0,0-.01-.02-.02-.04.01.16.03.32.03.48.01.38-.02.76-.04,1.14-.01.07-.02.14-.04.21-.04.21-.09.42-.15.63-.28,1.01.34,2.22,1.4,2.46,1.06.24,2.16-.32,2.46-1.4,1.06-3.85-.24-8.33-3.35-10.88Z"/><polygon class="cls-4" points="176.22 308.11 176.22 308.11 176.22 308.11 176.22 308.11"/><path class="cls-4" d="M121.08,287c-.27-.42-.69-.82-1.2-.92-.36-.07-.7-.17-1.04-.3-.38-.18-.74-.39-1.09-.63-.3-.25-.58-.53-.83-.84-.11-.16-.22-.31-.32-.48-.25-.43-.71-.79-1.2-.92-.48-.13-1.12-.07-1.54.2-.91.59-1.28,1.77-.72,2.74.65,1.12,1.54,2.01,2.58,2.76.39.28.8.51,1.24.7.6.26,1.2.49,1.84.62.54.1,1.06.08,1.54-.2.41-.24.81-.72.92-1.2.12-.51.09-1.09-.2-1.54Z"/><path class="cls-4" d="M95.49,292.1c-2.57,0-2.58,4,0,4s2.58-4,0-4Z"/><path class="cls-4" d="M262.75,373.48c-.53-1.36-1.05-2.73-1.58-4.09-.39-1.01-1.35-1.7-2.46-1.4-.64.18-1.21.75-1.41,1.42-1.37-.68-2.8-1.24-4.29-1.65-1.81-.5-2.95,1.42-2.26,2.94,0,.01,0,.02.01.03-1.29-.43-2.58-.86-3.86-1.29-1.52-.51-2.78,1.06-2.46,2.46.26,1.14-.91,1.58-1.75,1.04-1.3-.82-3.01.25-3.01,1.73,0,0-.01.16-.02.34-.55-.06-1.11.1-1.55.55-.71.71-.83,2.13,0,2.83,1.21,1.01,2.71,1.14,4.02.21.54-.38.89-.87,1.12-1.42,1.19.05,2.4-.3,3.36-1.08.69-.56,1.17-1.27,1.47-2.05,1.95.65,3.91,1.31,5.86,1.96,1.69.56,2.76-1.2,2.37-2.62,1.09.59,2.13,1.26,3.1,2.04.7.57,1.6.79,2.42.31.71-.42,1.23-1.44.92-2.26Z"/><path class="cls-4" d="M265.5,363.06c-.31-1.13-1.39-1.58-2.46-1.4-9.13,1.55-18.7.29-27.13-3.52.38-.92-.02-1.91-.84-2.47-.02-.02-.17-.12-.25-.18-.07-.06-.25-.2-.25-.2-.22-.18-.43-.37-.63-.57-.2-.2-.4-.4-.58-.62-.1-.12-.2-.24-.3-.36,0,0,0,0-.01-.01,0-.01-.01-.02-.02-.03-.35-.49-.67-.99-.95-1.52-.13-.25-.26-.51-.37-.77-.01-.02-.02-.04-.02-.05,0-.02-.02-.05-.03-.09-.05-.15-.11-.3-.16-.45-.18-.54-.33-1.09-.44-1.64-.03-.15-.06-.31-.08-.47,0-.01,0-.02,0-.03-.03-.31-.06-.62-.07-.94-.02-.53,0-1.07.06-1.6,0-.07.02-.18.03-.22.03-.16.06-.31.09-.46.07-.31.15-.61.24-.92.2-.66-.03-1.41-.49-1.92,1.01-.08,2.04.18,3.11.32,3.61.49,6.36-1.37,9-3.6,1.97-1.67-.88-4.48-2.83-2.83-1.09.92-2.26,1.92-3.65,2.36-1.66.52-3.38-.23-5.05-.3-2.31-.1-4.26.95-5.96,2.35-.12-.34-.24-.67-.36-1.01-.54-1.51-2.8-2.11-3.66-.48-.83,1.6-2.33,2.78-4.16,2.94-2.55.22-2.57,4.22,0,4,1.92-.17,3.72-.86,5.18-2.01.08.22.16.43.23.65.16.44.46.8.82,1.06-.17.3-.28.64-.31,1.02-.37,4.15-.73,8.34-.78,12.51-.01,1.17.37,2.35,1.4,3.01.42.27.88.41,1.36.5.31.48.84.82,1.59.82,2.19-.01,4.39-.02,6.58-.03.98,0,1.82-.76,1.97-1.71,9.09,3.82,19.05,4.97,28.82,3.31,1.07-.18,1.66-1.49,1.4-2.46ZM226.95,346.17c-.13-.25-.33-.47-.58-.63.25-.26.51-.53.77-.79-.09.47-.15.95-.19,1.42Z"/><path class="cls-4" d="M207.14,312.34c-2.72,5.08-9.07,7.37-14.39,5.41-1.01-.37-2.19.42-2.46,1.4-.31,1.12.38,2.09,1.4,2.46,6.95,2.56,15.42-.74,18.91-7.25,1.21-2.27-2.24-4.29-3.45-2.02Z"/><path class="cls-5" d="M282.75,343.4c-.38-1.33-.81-2.72-1.6-3.88-.93-1.37-2.16-2.43-3.76-2.94-.6-.19-1.39-.06-1.93.25-.52.3-1.01.9-1.15,1.49-.3,1.3.35,2.51,1.56,3,.2.09.38.2.56.32.12.11.23.22.33.34.23.33.42.67.59,1.03.21.56.4,1.13.56,1.71.17.61.6,1.17,1.15,1.49.54.31,1.33.45,1.93.25.6-.2,1.19-.57,1.49-1.15.31-.59.44-1.27.25-1.93Z"/><path class="cls-5" d="M274.87,315.01c-1.09-.85-2.2-1.62-3.44-2.23-1.23-.6-2.52-1.1-3.85-1.44-.64-.16-1.36-.08-1.93.25-.52.3-1.01.9-1.15,1.49-.3,1.3.39,2.73,1.75,3.08.73.19,1.44.43,2.14.71,1.2.54,2.33,1.2,3.37,2-.14-.11-.28-.21-.42-.32.55.42,1.04.73,1.76.73.61,0,1.35-.27,1.77-.73.44-.48.76-1.1.73-1.77-.03-.61-.22-1.37-.73-1.77Z"/><path class="cls-5" d="M296.12,333.08c-.02-.33-.11-.64-.3-.93-.34-.53-.86-1-1.49-1.15-.22-.03-.44-.06-.66-.09-.45,0-.87.12-1.26.34-.26.15-.51.32-.75.5-.4.3-.8.6-1.16.94-.58.55-1.09,1.18-1.54,1.84-.18.29-.28.6-.3.93-.07.33-.06.66.04,1,.08.33.23.61.45.85.18.27.41.49.7.64.2.08.4.17.6.25.44.12.89.12,1.33,0,.2-.08.4-.17.6-.25.36-.22.65-.51.87-.86.34-.42.73-.81,1.14-1.15.18-.13.36-.26.55-.37.29-.16.53-.37.7-.64.22-.24.37-.52.45-.85.1-.33.12-.66.04-1Z"/><path class="cls-5" d="M254.1,311.83c-1.39-.38-2.62.47-3.08,1.75.11-.3-.22.36-.26.48-.07.08-.26.31-.29.34-.1.1-.2.19-.3.28-.03.02-.23.18-.29.22-.15.1-.3.19-.45.28-.19.11-.39.21-.59.31-.04.02-.16.08-.2.1-1.6.68-3.42,1.05-5.15,1.09-1.79.04-3.16-.27-4.5-1.2-.26-.18-.95-.86-1.14-1.17-.46-.71-.56-.99-.69-1.96-.18-1.34-1.9-2.07-3.08-1.75-1.44.4-1.93,1.73-1.75,3.08.73,5.27,6.3,8.1,11.16,7.99,4.76-.11,10.59-1.86,12.35-6.77.45-1.27-.51-2.74-1.75-3.08Z"/><path class="cls-5" d="M206.75,343.07c-.44-1.35-1.7-2.04-3.08-1.75-2.05.45-3.73,1.79-4.93,3.47-1.06,1.48-1.65,3.53-1.41,5.35-.01.34.06.67.22.96.1.31.27.58.52.8.43.43,1.15.76,1.77.73.65-.03,1.32-.24,1.77-.73.41-.45.82-1.13.73-1.77-.05-.36-.05-.72-.02-1.08.06-.28.13-.56.23-.83.14-.29.3-.57.49-.83.21-.24.43-.46.66-.66.2-.14.41-.26.63-.37.22-.08.45-.16.68-.21,1.28-.28,2.15-1.84,1.75-3.08Z"/><path class="cls-5" d="M202.63,333.94c-.12-.42-.33-.79-.64-1.1-.17-.13-.34-.26-.51-.39-.39-.23-.81-.34-1.26-.34h-1.59c-.34-.01-.67.06-.96.22-.31.1-.58.27-.8.52-.24.23-.42.49-.52.8-.16.3-.23.62-.22.96.03.22.06.44.09.66.12.42.33.79.64,1.1.17.13.34.26.51.39.39.23.81.34,1.26.34h1.59c.34.01.67-.06.96-.22.31-.1.58-.27.8-.52.24-.23.42-.49.52-.8.16-.3.23-.62.22-.96-.03-.22-.06-.44-.09-.66Z"/><path class="cls-5" d="M363.62,410.35c-1.37-1.39-2.74-2.77-4.11-4.16-.45-.45-1.13-.73-1.77-.73s-1.35.27-1.77.73c-.44.48-.76,1.1-.73,1.77.03.67.26,1.29.73,1.77,1.37,1.39,2.74,2.77,4.11,4.16.45.45,1.13.73,1.77.73s1.35-.27,1.77-.73c.44-.48.76-1.1.73-1.77-.03-.67-.26-1.29-.73-1.77Z"/><path class="cls-6" d="M299.66,379.99c-.57,2.47-3.2,3.6-5.54,2.99-1.32-.34-2.48-1.08-3.44-2.03-1.38-1.36-2.5-2.97-4.75-2.43-1.4.34-2.47,1.29-3.91,1.58-.96.2-2.16.19-3.15-.02-2.37-.49-4.43-1.78-5.65-3.9-1.6-2.79-5.92-.28-4.32,2.52,1.77,3.09,4.86,5.3,8.32,6.12,1.82.43,3.65.49,5.49.2.74-.12,1.46-.3,2.17-.57.47-.18,1.01-.51,1.54-.77.07.08.13.16.2.23.34.38.7.74,1.09,1.08.74.64,1.53,1.23,2.39,1.7,1.74.95,3.78,1.55,5.78,1.44,3.95-.22,7.7-2.86,8.61-6.82.72-3.13-4.1-4.47-4.82-1.33Z"/><path class="cls-6" d="M179.82,347.03c-.42-1.3-1.72-2.11-3.08-1.75-7.51,2-13.67,8.39-15.27,16.02-.27,1.28.37,2.76,1.75,3.08,1.25.29,2.79-.38,3.08-1.75.17-.81.39-1.61.67-2.39.07-.19.14-.39.22-.58.01-.04.02-.05.03-.08.01-.03.02-.05.04-.09.17-.38.35-.75.55-1.11.39-.73.83-1.43,1.31-2.11.02-.03.19-.25.23-.32.09-.11.17-.22.26-.32.27-.32.54-.63.83-.93.57-.6,1.19-1.15,1.82-1.69.04-.03.06-.06.08-.07.02-.01.03-.02.06-.05.17-.12.33-.24.5-.36.34-.24.69-.46,1.04-.68.67-.4,1.37-.75,2.07-1.08.07-.03.13-.05.2-.08.19-.07.39-.15.58-.21.42-.15.85-.27,1.29-.39,1.26-.34,2.16-1.8,1.75-3.08Z"/><path class="cls-6" d="M257.03,375.41c-1.43-.39-2.57.49-3.08,1.75-3.35,8.35-10.2,15.13-18.51,18.75-1.24.54-1.52,2.35-.9,3.42.75,1.28,2.18,1.44,3.42.9,9.52-4.15,16.96-12.15,20.8-21.74.5-1.25-.55-2.75-1.75-3.08Z"/><path class="cls-6" d="M261.24,364.38c-3.3-3.04-8.35-1.97-12.37-1.41-4.59.64-9.09,1.75-13.46,3.29-1.27.45-2.12,1.71-1.75,3.08.34,1.23,1.8,2.2,3.08,1.75,3.81-1.34,7.73-2.37,11.71-3.02,1.88-.31,3.78-.53,5.68-.65,1.12-.07,2.71-.28,3.57.52,2.36,2.18,5.91-1.35,3.54-3.54Z"/><path class="cls-6" d="M142.12,307c-.45-1.4-1.69-1.98-3.08-1.75-.05,0-.07.01-.09.02-.01,0-.01,0-.03,0-.2.01-.4.03-.59.04-.4.01-.79,0-1.19-.03-.13-.01-.26-.02-.39-.04.09.01.18.02.27.03-.18.01-.4-.07-.59-.11-.39-.08-.77-.19-1.15-.32-.11-.04-.23-.08-.34-.12-.06-.03-.28-.12-.35-.15-.36-.17-.7-.37-1.04-.58-.17-.11-.33-.22-.49-.33-.03-.02-.04-.02-.05-.04-.02-.02-.03-.03-.06-.06-.32-.29-.63-.58-.93-.9-.02-.03-.15-.17-.23-.27-.07-.1-.22-.3-.24-.34-.22-.34-.43-.69-.61-1.05-.02-.03-.1-.21-.15-.32-.04-.11-.13-.34-.15-.38-.13-.38-.24-.77-.33-1.17-.04-.19-.07-.39-.11-.59,0-.05-.01-.1-.02-.15-.04-.4-.05-.81-.04-1.21,0-.2.02-.4.03-.61,0-.05.01-.1.02-.16.09-.42.17-.84.3-1.26.37-1.25-.45-2.78-1.75-3.08-1.34-.31-2.68.4-3.08,1.75-.63,2.11-.67,4.33-.2,6.45-3.75-.23-6.75-3.03-8.4-6.34-2.38-4.76-1.92-10.59-1.68-15.74.15-3.22-4.85-3.21-5,0-.3,6.34-.5,13.18,2.7,18.9,2.67,4.77,7.8,8.6,13.47,8.18.36-.03.7-.12,1.02-.26.29.41.59.8.93,1.18,2.98,3.3,7.58,4.61,11.89,3.88,1.29-.22,2.13-1.88,1.75-3.08Z"/><path class="cls-6" d="M228.23,289.17c-1.96-1.74-3.95-3.46-5.89-5.22-.36-.32-.71-.66-1.06-.99.45-1.46-.31-3.34-2.28-3.34-.14,0-.28.02-.41.04-.11-.2-.22-.4-.33-.6-.58-1.17-2.34-1.59-3.42-.9-1.2.77-1.52,2.16-.9,3.42,1.12,2.25,2.89,4.11,4.72,5.79,1.98,1.81,4.01,3.56,6.02,5.34.98.87,2.58,1.04,3.54,0,.87-.95,1.05-2.61,0-3.54Z"/><path class="cls-6" d="M272.86,318.72c-.57-.04-1.15-.09-1.72-.15-.2-.02-.41-.05-.61-.07.07,0-.61-.09-.68-.1-1.05-.16-2.1-.36-3.14-.6-1.94-.45-3.85-1.03-5.71-1.73-.05-.04-.09-.08-.14-.12-.22-.15-.43-.31-.65-.46-.03-.02-.05-.03-.07-.05-.03-.03-.07-.06-.14-.12-.18-.15-.35-.3-.52-.47-.08-.08-.42-.52-.35-.4-.07-.11-.14-.22-.21-.33,0-.01,0-.02-.02-.03-.04-.12-.08-.23-.1-.35-.02-.06-.03-.09-.04-.12,0-.03,0-.07,0-.13-.02-.31-.03-.62-.04-.94-.02-1.12.02-2.25.12-3.37.03-.27.06-.54.09-.81.01-.1.05-.37.06-.44.1-.63.22-1.26.36-1.89.28-1.27-.38-2.76-1.75-3.08-1.26-.29-2.77.38-3.08,1.75-.61,2.78-.96,5.7-.79,8.54.1,1.6.5,3.02,1.49,4.29.79,1.03,1.82,1.8,2.87,2.54.26.23.58.41.93.55,4.43,1.73,9.09,2.72,13.83,3.07,1.31.1,2.56-1.22,2.5-2.5-.06-1.44-1.1-2.4-2.5-2.5Z"/></g><g id="sushi_outline_copy"><path class="cls-7" d="M529.24,479.87c-8.13,10.5-18.76,19.1-32.13,21.41-12.33,2.13-24.42-1.74-35.61-6.69-10.99-4.86-21.63-10.52-31.46-17.48-10.55-7.47-20.01-16.37-28.76-25.86-10.85-11.76-20.74-24.39-30.31-37.21-8.87-11.88-17.43-23.99-26.49-35.73-9.43-12.23-19.38-24.15-30.3-35.07-8.75-8.74-18.42-16.55-28.24-24.04-10.61-8.09-21.55-15.75-32.69-23.09-9.28-6.11-18.69-12.03-28.36-17.49-1.73-.98-3.48-1.94-5.24-2.87-2.84-1.51-5.37,2.81-2.52,4.32,8.98,4.76,17.65,10.11,26.21,15.57,11.16,7.13,22.11,14.59,32.79,22.43,10.3,7.56,20.4,15.46,29.77,24.15,10.76,9.97,20.43,21.21,29.58,32.66,9.26,11.58,17.87,23.65,26.65,35.59,9.71,13.18,19.64,26.24,30.44,38.56,9.08,10.36,18.83,20.14,29.76,28.56,9.55,7.37,19.94,13.5,30.83,18.66,11.76,5.57,24,10.77,37.25,10.61,13.23-.15,25.31-5.89,34.79-14.95,2.75-2.63,5.26-5.5,7.59-8.5.83-1.07,1.04-2.5,0-3.54-.86-.86-2.7-1.07-3.54,0h0Z"/><path class="cls-7" d="M219.64,275.76c-20.57-9.98-41.96-18.67-65.01-20.28-5.85-.41-11.73-.37-17.57.09s-11.27,1.17-16.69,2.93c-5.19,1.69-10.22,3.9-14.92,6.67-4.36,2.57-8.85,4.91-13.28,7.35-10.12,5.56-20.62,11.75-27.28,21.47-.76,1.11-.21,2.77.9,3.42,1.24.72,2.66.22,3.42-.9,5.56-8.11,14.41-13.46,22.81-18.19,4.37-2.46,8.82-4.78,13.19-7.24,4.28-2.41,8.46-4.8,13.07-6.55,10.37-3.94,21.6-4.67,32.61-4.26,10.83.4,21.49,2.44,31.83,5.63,11.88,3.66,23.24,8.75,34.4,14.17,1.21.59,2.7.33,3.42-.9.64-1.1.32-2.83-.9-3.42h0Z"/><path class="cls-7" d="M82.06,282.76c.67,3.98-.17,8.07-.21,12.07-.05,4.26.92,8.21,3.58,11.6,2.19,2.79,5.25,4.94,6.99,8.07,1.93,3.47,2.35,7.44,5.34,10.32,3.14,3.03,7.5,4.23,11.63,5.21l-1.75-1.75c1.51,4.23,4.59,7.54,8.76,9.25,1.98.81,4.21,1.18,5.93,2.53s3.17,3.38,4.61,5.1c5.93,7.12,12.35,14.34,20.93,18.29,4.86,2.24,10.2,3.49,15.56,2.86,1.34-.16,2.5-1.04,2.5-2.5,0-1.23-1.15-2.66-2.5-2.5-8.3.97-16.11-2.87-22.23-8.22-3.23-2.83-6.12-6.02-8.9-9.29-2.6-3.05-5.03-6.89-8.65-8.82-1.88-1-3.98-1.39-5.9-2.28-1.49-.69-2.82-1.73-3.82-3.03-.54-.7-.99-1.5-1.34-2.32-.59-1.37-1.15-1.97-2.62-2.32-1.73-.42-3.5-.86-5.15-1.55-1.51-.63-2.96-1.49-4.05-2.72-1.21-1.37-1.77-3.17-2.37-4.86-.67-1.87-1.41-3.73-2.58-5.35s-2.45-2.94-3.8-4.31-2.82-2.81-3.8-4.56c-1.03-1.84-1.33-3.94-1.36-6.02-.08-4.78.83-9.46.03-14.23-.22-1.33-1.87-2.08-3.08-1.75-1.41.39-1.97,1.74-1.75,3.08h0Z"/><path class="cls-7" d="M161.27,364.07c.14,4.45.88,9.05,3.86,12.54s7,4.52,11.23,3.44c1.87-.48,3.2-.88,4.87.28,1.53,1.07,2.84,2.42,4.43,3.43,3.25,2.05,7.02,3.16,10.69,4.2,4.02,1.14,8.05,2.25,11.45,4.78v-4.32c-2.92,1.78-5.92,4.06-7.29,7.3-1.4,3.32-.33,6.98,2.57,9.09,2.44,1.78,5.78,2.2,8.72,2.09,4.01-.15,8.06-.81,11.94-1.78,4.49-1.12,8.84-2.78,12.98-4.85,2.88-1.44.35-5.75-2.52-4.32-3.76,1.88-7.7,3.32-11.78,4.34-3.79.95-7.82,1.69-11.75,1.62-2.23-.04-5.56-.54-5.81-2.96-.28-2.67,3.51-5.02,5.47-6.21,1.73-1.05,1.48-3.22,0-4.32-5.89-4.37-13.41-4.66-19.87-7.73-1.5-.71-2.89-1.57-4.15-2.64-1.47-1.24-2.91-2.49-4.74-3.15-2.1-.75-4.25-.27-6.33.27-1.56.41-2.93.55-4.38-.25-3.83-2.12-4.46-6.9-4.58-10.86-.1-3.21-5.1-3.22-5,0h0Z"/><path class="cls-7" d="M233.57,398.37c-.28,3.59-.34,7.27,1.26,10.59,1.43,2.97,4.3,4.93,7.42,5.77s6.29.78,9.43.86c1.48.04,3.07,0,4.52.32.69.16.86.37,1.23.98.5.84.98,1.64,1.62,2.39,2.54,3,6.19,3.85,9.96,3.71,1.92-.07,3.41.05,5.1,1.01,1.58.89,3.08,1.93,4.66,2.82,6.54,3.68,13.76,6.23,21.17,7.47,8.51,1.43,17.17,1.26,25.61-.61,3.14-.7,1.81-5.52-1.33-4.82-13.54,3-28.12,1.19-40.5-5.07-3.16-1.6-6.04-3.89-9.34-5.17-1.87-.72-3.84-.68-5.81-.61-1.52.05-2.92,0-4.26-.79s-1.9-1.81-2.65-3.03c-1.05-1.72-2.53-2.83-4.53-3.19-3.02-.54-6.11-.38-9.16-.52-2.73-.13-5.81-.41-7.76-2.47-2.33-2.48-1.86-6.54-1.62-9.64.1-1.35-1.22-2.5-2.5-2.5-1.44,0-2.4,1.15-2.5,2.5h0Z"/><path class="cls-7" d="M321.97,432.58c1.58,3.3,3.28,6.74,6.08,9.2s6.3,3.69,9.93,3.12c3.57-.56,5.26-3.32,7.76-5.51.88-.77,1.69-1.03,2.84-.66,1.48.48,2.78,1.43,4.2,2.05,4.62,2.01,9.08.26,13.29-1.89l-3.03-.39c5.84,5.68,15.76,6.55,22.32,1.58,1.07-.81,1.64-2.16.9-3.42-.62-1.06-2.34-1.72-3.42-.9-4.79,3.63-11.89,3.46-16.26-.79-.84-.81-2.02-.9-3.03-.39-1.93.98-4.07,2.13-6.29,2.17-1.91.03-3.4-1.02-5.05-1.85-1.92-.97-3.95-1.65-6.12-1.2-1.88.39-3.42,1.63-4.71,2.99-1.05,1.1-2.04,2.54-3.51,3.11s-3.11.25-4.46-.38c-3.68-1.71-5.48-5.91-7.13-9.35-.58-1.22-2.32-1.54-3.42-.9-1.25.73-1.48,2.2-.9,3.42h0Z"/></g><g id="sushi_outline_copy_2"><path class="cls-7" d="M82.06,282.76c.67,3.98-.17,8.07-.21,12.07-.05,4.26.92,8.21,3.58,11.6,2.19,2.79,5.25,4.94,6.99,8.07,1.93,3.47,2.35,7.44,5.34,10.32,3.14,3.03,7.5,4.23,11.63,5.21l-1.75-1.75c1.51,4.23,4.59,7.54,8.76,9.25,1.98.81,4.21,1.18,5.93,2.53s3.17,3.38,4.61,5.1c5.93,7.12,12.35,14.34,20.93,18.29,4.86,2.24,10.2,3.49,15.56,2.86,1.34-.16,2.5-1.04,2.5-2.5,0-1.23-1.15-2.66-2.5-2.5-8.3.97-16.11-2.87-22.23-8.22-3.23-2.83-6.12-6.02-8.9-9.29-2.6-3.05-5.03-6.89-8.65-8.82-1.88-1-3.98-1.39-5.9-2.28-1.49-.69-2.82-1.73-3.82-3.03-.54-.7-.99-1.5-1.34-2.32-.59-1.37-1.15-1.97-2.62-2.32-1.73-.42-3.5-.86-5.15-1.55-1.51-.63-2.96-1.49-4.05-2.72-1.21-1.37-1.77-3.17-2.37-4.86-.67-1.87-1.41-3.73-2.58-5.35s-2.45-2.94-3.8-4.31-2.82-2.81-3.8-4.56c-1.03-1.84-1.33-3.94-1.36-6.02-.08-4.78.83-9.46.03-14.23-.22-1.33-1.87-2.08-3.08-1.75-1.41.39-1.97,1.74-1.75,3.08h0Z"/><path class="cls-7" d="M161.27,364.07c.14,4.45.88,9.05,3.86,12.54s7,4.52,11.23,3.44c1.87-.48,3.2-.88,4.87.28,1.53,1.07,2.84,2.42,4.43,3.43,3.25,2.05,7.02,3.16,10.69,4.2,4.02,1.14,8.05,2.25,11.45,4.78v-4.32c-2.92,1.78-5.92,4.06-7.29,7.3-1.4,3.32-.33,6.98,2.57,9.09,2.44,1.78,5.78,2.2,8.72,2.09,4.01-.15,8.06-.81,11.94-1.78,4.49-1.12,8.84-2.78,12.98-4.85,2.88-1.44.35-5.75-2.52-4.32-3.76,1.88-7.7,3.32-11.78,4.34-3.79.95-7.82,1.69-11.75,1.62-2.23-.04-5.56-.54-5.81-2.96-.28-2.67,3.51-5.02,5.47-6.21,1.73-1.05,1.48-3.22,0-4.32-5.89-4.37-13.41-4.66-19.87-7.73-1.5-.71-2.89-1.57-4.15-2.64-1.47-1.24-2.91-2.49-4.74-3.15-2.1-.75-4.25-.27-6.33.27-1.56.41-2.93.55-4.38-.25-3.83-2.12-4.46-6.9-4.58-10.86-.1-3.21-5.1-3.22-5,0h0Z"/><path class="cls-7" d="M233.57,398.37c-.28,3.59-.34,7.27,1.26,10.59,1.43,2.97,4.3,4.93,7.42,5.77s6.29.78,9.43.86c1.48.04,3.07,0,4.52.32.69.16.86.37,1.23.98.5.84.98,1.64,1.62,2.39,2.54,3,6.19,3.85,9.96,3.71,1.92-.07,3.41.05,5.1,1.01,1.58.89,3.08,1.93,4.66,2.82,6.54,3.68,13.76,6.23,21.17,7.47,8.51,1.43,17.17,1.26,25.61-.61,3.14-.7,1.81-5.52-1.33-4.82-13.54,3-28.12,1.19-40.5-5.07-3.16-1.6-6.04-3.89-9.34-5.17-1.87-.72-3.84-.68-5.81-.61-1.52.05-2.92,0-4.26-.79s-1.9-1.81-2.65-3.03c-1.05-1.72-2.53-2.83-4.53-3.19-3.02-.54-6.11-.38-9.16-.52-2.73-.13-5.81-.41-7.76-2.47-2.33-2.48-1.86-6.54-1.62-9.64.1-1.35-1.22-2.5-2.5-2.5-1.44,0-2.4,1.15-2.5,2.5h0Z"/><path class="cls-7" d="M321.97,432.58c1.58,3.3,3.28,6.74,6.08,9.2s6.3,3.69,9.93,3.12c3.57-.56,5.26-3.32,7.76-5.51.88-.77,1.69-1.03,2.84-.66,1.48.48,2.78,1.43,4.2,2.05,4.62,2.01,9.08.26,13.29-1.89l-3.03-.39c5.84,5.68,15.76,6.55,22.32,1.58,1.07-.81,1.64-2.16.9-3.42-.62-1.06-2.34-1.72-3.42-.9-4.79,3.63-11.89,3.46-16.26-.79-.84-.81-2.02-.9-3.03-.39-1.93.98-4.07,2.13-6.29,2.17-1.91.03-3.4-1.02-5.05-1.85-1.92-.97-3.95-1.65-6.12-1.2-1.88.39-3.42,1.63-4.71,2.99-1.05,1.1-2.04,2.54-3.51,3.11s-3.11.25-4.46-.38c-3.68-1.71-5.48-5.91-7.13-9.35-.58-1.22-2.32-1.54-3.42-.9-1.25.73-1.48,2.2-.9,3.42h0Z"/></g><path class="cls-1" d="M564.87,395.16c-.27-.76-.64-1.49-1.16-2.17-5.25-6.89-10.51-13.77-15.76-20.66-.66-.86-1.36-1.61-2.1-2.26-2.09-8.13-5.53-15.68-10.04-22.66-.89-6.81-2.36-13.05-4.57-19.3-.03-2.05-.16-4.09-.39-6.11-1.91-4.68-3.51-9.5-4.97-14.31-1.06-3.47-2.06-6.96-3.11-10.44-1.38-2.43-3.21-3.98-5.22-4.82-.27-.62-.54-1.25-.83-1.86.82-2.16.99-4.52.17-6.76-4.1-11.23-9.49-21.84-16.12-31.63-3.54-12.59-11.74-22.83-20.02-32.75-.05-.06-.1-.1-.15-.16,1.06-3.2.82-6.87-.7-9.85-1.1-1.2-2.14-2.45-3.15-3.72-.9-.65-1.92-1.17-3.08-1.52-1.71-4.05-4.15-7.79-7.18-11.29-3.67-4.24-8.13-7.67-12.42-11.26-.83-1.43-1.66-2.85-2.52-4.27-6.09-10.04-14.15-18.41-23.73-25.06-.21-1.33-.69-2.62-1.47-3.81-3.03-4.6-6.49-8.88-10.35-12.74-1.53-1.28-3-2.61-4.36-4.03-4.85-4.14-10.24-7.67-16.11-10.39-.88-.41-1.8-.72-2.72-.95-2.87-3.76-6.34-6.95-10.23-9.41-2.82.32-5.75-.19-8.27-1.53-3.24-1.72-6.11-4.1-8.96-6.4-.05-.03-.09-.06-.16-.1-.64-.41-1.25-.85-1.92-1.24-.2-.11-.55-.24-.81-.34-.32-.06-.61-.12-.73-.15-.04,0-.08-.02-.12-.03-1.39.01-2.65.23-3.78.61-8.29-5.39-17.42-8.67-27.09-10.42-2.83-1.95-6.06-3.46-9.65-4.38-68.62-17.5-144.8-5.43-203.69,34.33-2.56,1.73-4.91,3.65-6.99,5.79-8.24,3.14-15.93,7.47-20.58,14.76-1.22.44-2.37,1.15-3.36,2.16-2.47,2.54-4.95,5.08-7.42,7.62-.87.89-1.52,1.91-1.98,3-1.22.79-2.31,1.84-3.22,3.08-.82,1.12-1.64,2.25-2.46,3.37-1.29.92-2.55,1.93-3.75,3.05-17.98,16.7-29.94,38.2-40.84,59.88-2.54,2.19-4.74,4.78-6.45,7.81-1.69,2.98-3.03,6.34-4.15,9.55-.43,1.24-.67,2.45-.85,3.69-.7,1.51-1.25,3.1-1.65,4.79-.28.9-.5,1.81-.69,2.71-.67,1.27-1.2,2.64-1.53,4.13-4.19,18.68-1.66,37.7,7.76,54.43,2.58,4.59,7.28,7.79,12.42,9.06,1.37,1.88,3.06,3.51,5.38,4.87,1.03.6,2.18,1.12,3.4,1.53,2.19,2.22,5.06,3.74,8.33,4.2,1.34.57,2.88.9,4.63.9,6.28,0,9.89-4.14,10.84-8.91,1.11-2.06,1.73-4.39,1.62-6.83-.03-.63-.1-1.25-.2-1.86,1.35-3.51,1.57-7.35.02-11.07-.32-.69-.59-1.41-.81-2.14,0-.18-.02-.36-.03-.53,2.82-3.19,4.6-7.28,5.1-11.49,4.24-2.99,8.04-6.65,12.02-10.15,1.11-.66,2.24-1.28,3.4-1.85,4.92-1.96,9.89-3.82,14.88-5.64,1.6-1.61,3.58-2.88,5.74-3.6,3.59-1.2,7.16-2.41,10.77-3.52,1.85-3.9,5.58-6.84,11.21-6.84,1.79,0,3.38.31,4.79.84.16-.11.32-.2.48-.31.22,0,.43,0,.65-.02,10.83-.59,21.67-.83,32.5-.73.92.33,1.87.63,2.85.88,11.19,2.85,22.37,5.77,33.16,9.89,5.59,2.62,10.95,5.63,16.01,9.22,3.15,2.23,7.37,3.54,11.71,4.08.65.64,1.39,1.24,2.26,1.78,17.86,11.08,34.9,23.33,50.98,36.86,2.45,2.06,3.71,5,6.45,5.01.77,2.24,3.94,2.32,6.56,3.89,1.7,1.02,2.85,3.4,4.55,4.42.13.08.77.25.9.33.67.42-.23.42.43.86.53,1.2,2.91,1.34,3.98,2.45,5.29,5.49,7.17,10.76,13.27,15.31.04.88,4.09,1.5,4.43,2.32.07.16.13.32.2.48-.02,5.38,3.85,10.51,9.42,12.47.27.1.55.17.82.24,1.15,1.4,2.33,2.92,3.17,3.88,2.84,3.23,5.67,6.46,8.51,9.69,2.17,2.47,4.34,4.94,6.51,7.42-.17,2.33.3,4.78,1.29,7.09.34.8.72,1.59,1.1,2.37,3.63,4.42,7.06,9,10.05,13.93,2.55,2.55,5.34,4.86,8.33,6.87.34,2.3,1.36,4.45,3.2,5.99,4.34,3.65,8.5,7.5,12.49,11.5,11.98,17.15,27.25,31.84,44.93,42.93,3.54,3.16,7.57,5.75,11.94,7.6.89,1.25,2.05,2.31,3.45,3.08,1.44.79,2.91,1.45,4.42,2,10.44,4.62,21.09,8.49,32.61,9.37,12.59.96,24.68-3.15,34.56-10.82,12.18-9.45,19.31-22.51,26.55-35.57,10.59-9.5,18.43-22.2,22.25-35.93,1.06-1.15,1.83-2.53,2.33-4.01,6-6.16,3.61-19.3-7.2-19.84ZM400.29,415.31c-.59-.55-1.16-1.12-1.75-1.66.59.27,1.18.53,1.77.8.01.31.04.61.08.91-.03-.02-.07-.04-.1-.05ZM498.26,315.2c-.03-.32-.06-.64-.12-.95.35-.05.69-.13,1.04-.22.08.2.16.4.24.59-.4.17-.78.37-1.16.58Z"/><g id="salmon_banding"><path class="cls-8" d="M351.86,179.55c-3.37-31.66-10.29-62.53-20.66-92.39-8.14-2-16.65-2.51-24.54-5.47-.69-.26-1.37-.55-2.05-.84,10.45,26.53,17.92,54.33,22.17,82.52-51.8-14.54-106.44-17.55-159.67-9.42-53.02,8.1-112.57,25.96-139.27,76.76-12.28,23.37-16.88,50-12.83,75.97,3.81,1.89,6,5.61,6.57,9.61.19.23.83,1.03,1.02,1.26.61.73,1.24,1.45,1.88,2.15.58.63,1.17,1.24,1.77,1.84,1.38.15,2.78.07,4.1-.3,6.29-1.73,9.33-8.05,8.03-14.15-4.28-20.09-1.62-41.96,7.32-60.79,9.99-21.03,26.14-36.48,46.82-46.97,23.22-11.78,49.79-18.07,75.33-22.36,26.41-4.44,53.43-5.57,80.15-3.9,30.42,1.9,60.41,7.94,89.32,17.57,6.57,2.19,15.33-3.8,14.56-11.09Z"/><path class="cls-8" d="M284.06,119.76c-5.54-15.32-12.53-30-21.15-43.79-8.32.1-16.64.45-24.96.51-.03,1.98.45,3.95,1.6,5.66,5.33,7.98,10.12,16.27,14.31,24.87-45.51-7.85-92.51-4.61-136.45,9.06-.5.73-1.1,1.4-1.8,1.99-5.23,4.35-10.86,7.99-16.64,11.37-.38.51-.8,1.02-1.28,1.52-10.57,10.81-22.37,20.61-33.22,31.24-.18.48-.37.95-.59,1.41-.4.82-.82,1.61-1.26,2.39.3-.17.6-.34.9-.51,15-8.58,30.1-16.69,46.33-22.72,32.75-12.17,67.5-17.95,102.42-16.98,19.51.54,38.75,3.3,57.66,8.14,7.93,2.03,17.24-5.59,14.15-14.15Z"/><path class="cls-8" d="M222.94,79.38c-6.06.82-12.23.79-18.13,2.51-7.35,2.14-14.4,4.06-21.95,4.97-3.17,1.75-6.47,2.94-10.05,3.52-1.63.23-3.26.44-4.9.64-.71.18-3.67.89-3.05.58-2.29.93-4.36,2.47-6.56,3.65l54.18-.05c8.95,0,12.73-8.41,10.47-15.82Z"/><path class="cls-8" d="M408.85,252.29c-5.26-47.98-15.04-95.3-29.58-141.31-1.73-.2-3.43-.71-4.97-1.53-3.24-1.72-6.11-4.1-8.96-6.4-.05-.03-.09-.06-.16-.1-.64-.41-1.25-.85-1.92-1.24-.2-.11-.55-.24-.81-.34-.32-.06-.61-.12-.73-.15-1.68-.37-3.15-1.1-4.4-2.07-2.54,2.86-3.78,6.89-2.55,10.64,13.08,39.88,22.74,80.89,28.56,122.46-50.95-22.95-108.38-26.97-163.8-28.19-56.6-1.25-125.04-2.6-160.85,49.8-14.96,21.89-20.88,50.11-16.14,76.25.43.03.85.08,1.28.14,2.79.39,6.13.79,9.58,1.02.07,0,.13,0,.2,0,3.63,0,7.09-.06,10.37-.33.48-.9,1.07-1.73,1.76-2.48-4.15-19.48-.91-39.9,9.33-57.48,12.5-21.46,34.22-33.66,58.02-39.27,25.95-6.12,53.07-5.27,79.55-4.78,29.19.55,58.59,1.42,87.51,5.71,31.92,4.74,63.29,13.41,91.39,29.58,6.91,3.97,18.29-.94,17.3-9.93Z"/><path class="cls-8" d="M447.24,305.57c-2.12-50.6-5.65-101.14-10.55-151.54-.33-.36-.66-.72-.99-1.08-1.91-2.03-3.85-4.03-5.84-5.98-1.16-1.13-2.33-2.26-3.56-3.32-.59-.51-1.32-1.02-.29-.24-5.18-3.91-10.37-7.48-14.6-11.94,5.49,52.09,9.51,104.34,12.03,156.66-36.06-14.27-73.39-24.95-111.57-32.08-22.51-4.2-45.25-7.27-68.06-9.33-22.79-2.05-46.22-4.23-68.96-.78-12.52,1.9-24.91,6.28-35.41,13.31,4.99-.08,9.99-.48,14.97-.28,5.53.21,10.9,1.64,16.39,2.09,3.43.28,6.6,1.6,8.96,3.74,3.14.67,6.22,1.5,9.24,2.48,17.22-1.29,35.12.75,52.05,2.21,41.62,3.6,82.93,10.95,123.09,22.54,22.38,6.46,44.43,14.19,65.8,23.47,7.44,3.23,17.71-.35,17.3-9.93Z"/><path class="cls-8" d="M494.79,268.69c-2.62-15.79-7.23-30.89-12.39-46-1.89-5.52-3.76-11.05-5.38-16.63-4.05-5.03-7.43-10.59-10.66-16.2-5.85-6.37-11.42-12.94-15.56-20.49-.25-.16-.5-.32-.74-.5-.31,1-.53,2.04-.61,3.13-2.29,32.07,14.5,61.27,21.08,91.87,6.66,30.97,6.25,63.08,3.3,94.47-1.01,10.77-2.37,21.5-3.93,32.2-20.4-18.12-45.46-30.74-69.83-42.75-34.97-17.24-70.75-34.58-109.01-43.13-13.34-2.98-26.94-4.88-40.58-5.29,1.13.71,2.26,1.43,3.38,2.16,10.97,7.15,22.19,15.1,30.53,25.34,16.12,3.46,31.95,8.67,47.41,14.79,17.34,6.87,34.19,14.96,50.93,23.17,14.96,7.34,30,14.63,44.33,23.16,16.02,9.54,30.68,20.77,42.43,35.36,5.19,6.44,17.88,3.09,19.22-5.07,5.38-32.81,10.07-65.96,10.11-99.28.02-16.85-1.27-33.67-4.04-50.29Z"/><path class="cls-8" d="M525.88,307.7c-1.28-4.21-2.47-8.45-3.77-12.66-.64-2.05-1.29-4.1-2.01-6.12-.35-.99-.72-1.97-1.09-2.96.45,1.22.5,1.11-.02-.04-2.68-5.99-5.97-12.3-8.8-18.8-1.48,67.81-.25,135.65,3.71,203.36-48.08-32.67-98.56-61.77-150.99-86.9-10.13-4.86-20.54-9.87-31.41-12.82,10.18,13.2,22.62,24.54,31.78,38.52,10.19,5.03,20.32,10.2,30.36,15.53,27.93,14.82,55.26,30.79,81.89,47.84,13.07,8.37,25.94,17.02,38.67,25.9,8.64-6.14,16.08-13.77,23.06-21.88-3.05-50.18-4.61-100.43-4.67-150.69-2.73-5.9-4.83-12.11-6.71-18.29Z"/><path class="cls-8" d="M560.2,384.2c-9.94-13-17.5-27.72-23.06-43.12,0,.1-.02.2-.02.3-.78,25.24-.78,50.23,4.15,75.1,2.73,13.8,6.83,27.32,12.08,40.38,1.85-2.49,3.67-5,5.38-7.58,2.05-3.09,3.8-6.3,5.59-9.53.1-.19.18-.34.25-.47.2-.53.41-1.06.58-1.6.45-1.42.72-4.23.46-1.12.23-2.69,1.08-5.21,2.47-7.32-1.82-6.2-3.37-12.49-4.63-18.87-1.72-8.68-2.71-17.41-3.25-26.17Z"/></g><g id="sushi_outline"><path class="cls-7" d="M64.63,294.58c-2.21,7.08-2.67,14.58-2.44,21.95.08,2.43.23,4.86.43,7.29.08.95.22,1.9.2,2.85,0,.31.19-.35,0-.13-.05.06-.13.48,0,.11.11-.31-.45.57.01.05-.15.17-.31.32-.48.47.48-.42-.06,0-.23.1-.11.06-.22.11-.33.17.08-.04.5-.18.06-.03-.29.1-.58.2-.88.28-.28.07-.56.14-.84.19-.15.03-.29.05-.44.08-.39.07.39-.04,0,0-.66.08-1.32.12-1.98.14-1.26.04-2.52,0-3.78-.11-.54-.04-1.07-.09-1.6-.15-.23-.03-.47-.06-.7-.08-.6-.07.49.08-.17-.02-2.87-.45-5.7-1.12-8.46-2-6.41-2.04-12.3-5.41-17.02-10.08-9.56-9.46-13.56-23.04-15.42-36.2-2.62-18.56,6.21-36.4,15.13-52.05,8.62-15.13,17.41-30.27,27.73-44.31,9.52-12.96,20.23-25.06,31.97-36.05,11.56-10.83,24.14-20.55,37.56-28.97s27.87-15.67,42.77-21.38,31.6-10.44,47.95-13.31c17.05-2.99,34.43-4.07,51.72-3.38s34.51,3.2,51.29,7.47c16.74,4.26,33.04,10.26,48.49,18,15.42,7.73,30.03,17.15,43.27,28.2,14.03,11.71,26.89,24.92,38.73,38.83,11.95,14.05,22.81,29,32.65,44.6,9.86,15.63,18.69,31.89,26.54,48.62,7.62,16.24,14.16,32.86,19.68,49.93,5.37,16.63,10.37,33.48,17.97,49.27,3.73,7.75,8.13,15.13,13.42,21.93,2.61,3.35,5.48,6.43,8.41,9.5s5.77,6.14,6.73,10.17c1.1,4.59-1.51,9.12-3.46,13.11-2.15,4.41-4.42,8.76-6.8,13.04-4.76,8.57-9.97,16.89-15.61,24.92-5.43,7.73-11.26,15.17-17.46,22.3-.89,1.02-1,2.53,0,3.54.9.9,2.65,1.02,3.54,0,13.15-15.13,24.73-31.63,34.39-49.2,2.4-4.36,4.68-8.79,6.84-13.27,2.3-4.76,4.51-9.61,3.53-15.02-.8-4.45-3.72-8.24-6.68-11.51-2.95-3.25-6.07-6.31-8.83-9.74-10.89-13.51-17.65-29.84-23.26-46.1s-10.66-34.14-17.36-50.74c-7.09-17.55-15.16-34.71-24.31-51.29-9.12-16.54-19.3-32.51-30.58-47.67-11.23-15.1-23.51-29.42-36.92-42.62-12.96-12.77-26.94-24.39-42.36-34.09-14.97-9.42-31.04-17.08-47.71-22.98-16.8-5.95-34.21-10.01-51.88-12.3-17.59-2.28-35.42-2.7-53.09-1.21s-34.72,4.83-51.5,9.84c-15.92,4.76-31.41,11.03-46.13,18.75-14.41,7.56-28.04,16.56-40.72,26.76-12.78,10.28-24.54,21.82-35.14,34.34-10.88,12.86-20.55,26.71-29.01,41.27-9.65,16.63-20.95,33.23-25.32,52.23-1.05,4.57-1.67,9.28-1.66,13.97.01,4.33.65,8.64,1.45,12.89,1.31,7,3.34,13.9,6.51,20.3,2.96,5.98,7.06,11.48,12.23,15.74,5.8,4.78,12.66,7.99,19.94,9.8,4.76,1.18,9.9,1.97,14.8,1.35,2.67-.34,5.62-1.17,7.06-3.67.87-1.5.73-3.06.59-4.72-.22-2.52-.38-5.05-.47-7.59-.25-7.18.1-14.18,2.24-21.04.96-3.08-3.86-4.39-4.82-1.33h0Z"/><path class="cls-7" d="M529.24,479.87c-8.13,10.5-18.76,19.1-32.13,21.41-12.33,2.13-24.42-1.74-35.61-6.69-10.99-4.86-21.63-10.52-31.46-17.48-10.55-7.47-20.01-16.37-28.76-25.86-10.85-11.76-20.74-24.39-30.31-37.21-8.87-11.88-17.43-23.99-26.49-35.73-9.43-12.23-19.38-24.15-30.3-35.07-8.75-8.74-18.42-16.55-28.24-24.04-10.61-8.09-21.55-15.75-32.69-23.09-9.28-6.11-18.69-12.03-28.36-17.49-1.73-.98-3.48-1.94-5.24-2.87-2.84-1.51-5.37,2.81-2.52,4.32,8.98,4.76,17.65,10.11,26.21,15.57,11.16,7.13,22.11,14.59,32.79,22.43,10.3,7.56,20.4,15.46,29.77,24.15,10.76,9.97,20.43,21.21,29.58,32.66,9.26,11.58,17.87,23.65,26.65,35.59,9.71,13.18,19.64,26.24,30.44,38.56,9.08,10.36,18.83,20.14,29.76,28.56,9.55,7.37,19.94,13.5,30.83,18.66,11.76,5.57,24,10.77,37.25,10.61,13.23-.15,25.31-5.89,34.79-14.95,2.75-2.63,5.26-5.5,7.59-8.5.83-1.07,1.04-2.5,0-3.54-.86-.86-2.7-1.07-3.54,0h0Z"/><path class="cls-7" d="M219.64,275.76c-20.57-9.98-41.96-18.67-65.01-20.28-5.85-.41-11.73-.37-17.57.09s-11.27,1.17-16.69,2.93c-5.19,1.69-10.22,3.9-14.92,6.67-4.36,2.57-8.85,4.91-13.28,7.35-10.12,5.56-20.62,11.75-27.28,21.47-.76,1.11-.21,2.77.9,3.42,1.24.72,2.66.22,3.42-.9,5.56-8.11,14.41-13.46,22.81-18.19,4.37-2.46,8.82-4.78,13.19-7.24,4.28-2.41,8.46-4.8,13.07-6.55,10.37-3.94,21.6-4.67,32.61-4.26,10.83.4,21.49,2.44,31.83,5.63,11.88,3.66,23.24,8.75,34.4,14.17,1.21.59,2.7.33,3.42-.9.64-1.1.32-2.83-.9-3.42h0Z"/><path class="cls-7" d="M82.06,282.76c.67,3.98-.17,8.07-.21,12.07-.05,4.26.92,8.21,3.58,11.6,2.19,2.79,5.25,4.94,6.99,8.07,1.93,3.47,2.35,7.44,5.34,10.32,3.14,3.03,7.5,4.23,11.63,5.21l-1.75-1.75c1.51,4.23,4.59,7.54,8.76,9.25,1.98.81,4.21,1.18,5.93,2.53s3.17,3.38,4.61,5.1c5.93,7.12,12.35,14.34,20.93,18.29,4.86,2.24,10.2,3.49,15.56,2.86,1.34-.16,2.5-1.04,2.5-2.5,0-1.23-1.15-2.66-2.5-2.5-8.3.97-16.11-2.87-22.23-8.22-3.23-2.83-6.12-6.02-8.9-9.29-2.6-3.05-5.03-6.89-8.65-8.82-1.88-1-3.98-1.39-5.9-2.28-1.49-.69-2.82-1.73-3.82-3.03-.54-.7-.99-1.5-1.34-2.32-.59-1.37-1.15-1.97-2.62-2.32-1.73-.42-3.5-.86-5.15-1.55-1.51-.63-2.96-1.49-4.05-2.72-1.21-1.37-1.77-3.17-2.37-4.86-.67-1.87-1.41-3.73-2.58-5.35s-2.45-2.94-3.8-4.31-2.82-2.81-3.8-4.56c-1.03-1.84-1.33-3.94-1.36-6.02-.08-4.78.83-9.46.03-14.23-.22-1.33-1.87-2.08-3.08-1.75-1.41.39-1.97,1.74-1.75,3.08h0Z"/><path class="cls-7" d="M161.27,364.07c.14,4.45.88,9.05,3.86,12.54s7,4.52,11.23,3.44c1.87-.48,3.2-.88,4.87.28,1.53,1.07,2.84,2.42,4.43,3.43,3.25,2.05,7.02,3.16,10.69,4.2,4.02,1.14,8.05,2.25,11.45,4.78v-4.32c-2.92,1.78-5.92,4.06-7.29,7.3-1.4,3.32-.33,6.98,2.57,9.09,2.44,1.78,5.78,2.2,8.72,2.09,4.01-.15,8.06-.81,11.94-1.78,4.49-1.12,8.84-2.78,12.98-4.85,2.88-1.44.35-5.75-2.52-4.32-3.76,1.88-7.7,3.32-11.78,4.34-3.79.95-7.82,1.69-11.75,1.62-2.23-.04-5.56-.54-5.81-2.96-.28-2.67,3.51-5.02,5.47-6.21,1.73-1.05,1.48-3.22,0-4.32-5.89-4.37-13.41-4.66-19.87-7.73-1.5-.71-2.89-1.57-4.15-2.64-1.47-1.24-2.91-2.49-4.74-3.15-2.1-.75-4.25-.27-6.33.27-1.56.41-2.93.55-4.38-.25-3.83-2.12-4.46-6.9-4.58-10.86-.1-3.21-5.1-3.22-5,0h0Z"/><path class="cls-7" d="M233.57,398.37c-.28,3.59-.34,7.27,1.26,10.59,1.43,2.97,4.3,4.93,7.42,5.77s6.29.78,9.43.86c1.48.04,3.07,0,4.52.32.69.16.86.37,1.23.98.5.84.98,1.64,1.62,2.39,2.54,3,6.19,3.85,9.96,3.71,1.92-.07,3.41.05,5.1,1.01,1.58.89,3.08,1.93,4.66,2.82,6.54,3.68,13.76,6.23,21.17,7.47,8.51,1.43,17.17,1.26,25.61-.61,3.14-.7,1.81-5.52-1.33-4.82-13.54,3-28.12,1.19-40.5-5.07-3.16-1.6-6.04-3.89-9.34-5.17-1.87-.72-3.84-.68-5.81-.61-1.52.05-2.92,0-4.26-.79s-1.9-1.81-2.65-3.03c-1.05-1.72-2.53-2.83-4.53-3.19-3.02-.54-6.11-.38-9.16-.52-2.73-.13-5.81-.41-7.76-2.47-2.33-2.48-1.86-6.54-1.62-9.64.1-1.35-1.22-2.5-2.5-2.5-1.44,0-2.4,1.15-2.5,2.5h0Z"/><path class="cls-7" d="M321.97,432.58c1.58,3.3,3.28,6.74,6.08,9.2s6.3,3.69,9.93,3.12c3.57-.56,5.26-3.32,7.76-5.51.88-.77,1.69-1.03,2.84-.66,1.48.48,2.78,1.43,4.2,2.05,4.62,2.01,9.08.26,13.29-1.89l-3.03-.39c5.84,5.68,15.76,6.55,22.32,1.58,1.07-.81,1.64-2.16.9-3.42-.62-1.06-2.34-1.72-3.42-.9-4.79,3.63-11.89,3.46-16.26-.79-.84-.81-2.02-.9-3.03-.39-1.93.98-4.07,2.13-6.29,2.17-1.91.03-3.4-1.02-5.05-1.85-1.92-.97-3.95-1.65-6.12-1.2-1.88.39-3.42,1.63-4.71,2.99-1.05,1.1-2.04,2.54-3.51,3.11s-3.11.25-4.46-.38c-3.68-1.71-5.48-5.91-7.13-9.35-.58-1.22-2.32-1.54-3.42-.9-1.25.73-1.48,2.2-.9,3.42h0Z"/></g></g></svg>