<?xml version="1.0" encoding="UTF-8"?><svg id="Layer_17" xmlns="http://www.w3.org/2000/svg" viewBox="0 0 580.41 576"><defs><style>.cls-1{fill:#fff1e6;}.cls-2{fill:#f4caa4;}.cls-3{fill:#1a1a1a;}</style></defs><g id="sushi_outline"><path class="cls-3" d="M81.65,284.66c.69-.73,1.47-1.36,2.32-1.85.69-.4,1.45-.65,2.16-1,.04-.02.08-.04.12-.05-.31-1.25-1.87-1.94-3.04-1.62-1.41.39-1.97,1.74-1.75,3.08.08.48.14.97.18,1.45Z"/><path class="cls-3" d="M201.74,394.03c-.14-.07-.29-.14-.43-.21-.55.72-1.03,1.5-1.38,2.35-.19.45-.33.91-.43,1.38.55-1.23,1.33-2.4,2.25-3.52Z"/><path class="cls-3" d="M381.93,437.76c.58.68,1.18,1.34,1.75,2.02.31.27.59.58.83.91.09-.06.18-.12.26-.18,1.07-.81,1.64-2.16.9-3.42-.62-1.06-2.34-1.72-3.42-.9-.3.23-.61.44-.92.63.13.17.24.35.35.54.08.14.17.26.25.39Z"/><path class="cls-2" d="M564.27,395.61c-.27-.76-.64-1.49-1.16-2.17-5.25-6.89-10.51-13.77-15.76-20.66-.66-.86-1.36-1.61-2.1-2.26-2.09-8.13-5.53-15.68-10.04-22.66-.89-6.81-2.36-13.05-4.57-19.3-.03-2.05-.16-4.09-.39-6.11-1.91-4.68-3.51-9.5-4.97-14.31-1.06-3.47-2.06-6.96-3.11-10.44-1.38-2.43-3.21-3.98-5.22-4.82-.27-.62-.54-1.25-.83-1.86.82-2.16.99-4.52.17-6.76-4.1-11.23-9.49-21.84-16.12-31.63-3.54-12.59-11.74-22.83-20.02-32.75-.05-.06-.1-.1-.15-.16,1.06-3.2.82-6.87-.7-9.85-1.1-1.2-2.14-2.45-3.15-3.72-.9-.65-1.92-1.17-3.08-1.52-1.71-4.05-4.15-7.79-7.18-11.29-3.67-4.24-8.13-7.67-12.42-11.26-.83-1.43-1.66-2.85-2.52-4.27-6.09-10.04-14.15-18.41-23.73-25.06-.21-1.33-.69-2.62-1.47-3.81-3.03-4.6-6.49-8.88-10.35-12.74-1.53-1.28-3-2.61-4.36-4.03-4.85-4.14-10.24-7.67-16.11-10.39-.88-.41-1.8-.72-2.72-.95-2.87-3.76-6.34-6.95-10.23-9.41-2.82.32-5.75-.19-8.27-1.53-3.24-1.72-6.11-4.1-8.96-6.4-.05-.03-.09-.06-.16-.1-.64-.41-1.25-.85-1.92-1.24-.2-.11-.55-.24-.81-.34-.32-.06-.61-.12-.73-.15-.04,0-.08-.02-.12-.03-1.39.01-2.65.23-3.78.61-8.29-5.39-17.42-8.67-27.09-10.42-2.83-1.95-6.06-3.46-9.65-4.38-68.62-17.5-144.8-5.43-203.69,34.33-2.56,1.73-4.91,3.65-6.99,5.79-8.24,3.14-15.93,7.47-20.58,14.76-1.22.44-2.37,1.15-3.36,2.16-2.47,2.54-4.95,5.08-7.42,7.62-.87.89-1.52,1.91-1.98,3-1.22.79-2.31,1.84-3.22,3.08-.82,1.12-1.64,2.25-2.46,3.37-1.29.92-2.55,1.93-3.75,3.05-17.98,16.7-29.94,38.2-40.84,59.88-2.54,2.19-4.74,4.78-6.45,7.81-1.69,2.98-3.03,6.34-4.15,9.55-.43,1.24-.67,2.45-.85,3.69-.7,1.51-1.25,3.1-1.65,4.79-.28.9-.5,1.81-.69,2.71-.67,1.27-1.2,2.64-1.53,4.13-4.19,18.68-1.66,37.7,7.76,54.43,2.58,4.59,7.28,7.79,12.42,9.06,1.37,1.88,3.06,3.51,5.38,4.87,1.03.6,2.18,1.12,3.4,1.53,2.19,2.22,5.06,3.74,8.33,4.2,1.34.57,2.88.9,4.63.9,6.28,0,9.89-4.14,10.84-8.91,1.11-2.06,1.73-4.39,1.62-6.83-.03-.63-.1-1.25-.2-1.86,1.35-3.51,1.57-7.35.02-11.07-.32-.69-.59-1.41-.81-2.14,0-.18-.02-.36-.03-.53,2.82-3.19,4.6-7.28,5.1-11.49,4.24-2.99,8.04-6.65,12.02-10.15,1.11-.66,2.24-1.28,3.4-1.85,4.92-1.96,9.89-3.82,14.88-5.64,1.6-1.61,3.58-2.88,5.74-3.6,3.59-1.2,7.16-2.41,10.77-3.52,1.85-3.9,5.58-6.84,11.21-6.84,1.79,0,3.38.31,4.79.84.16-.11.32-.2.48-.31.22,0,.43,0,.65-.02,10.83-.59,21.67-.83,32.5-.73.92.33,1.87.63,2.85.88,11.19,2.85,22.37,5.77,33.16,9.89,5.59,2.62,10.95,5.63,16.01,9.22,3.15,2.23,7.37,3.54,11.71,4.08.65.64,1.39,1.24,2.26,1.78,17.86,11.08,34.9,23.33,50.98,36.86,2.45,2.06,3.71,5,6.45,5.01.77,2.24,3.94,2.32,6.56,3.89,1.7,1.02,2.85,3.4,4.55,4.42.13.08.77.25.9.33.67.42-.23.42.43.86.53,1.2,2.91,1.34,3.98,2.45,5.29,5.49,7.17,10.76,13.27,15.31.04.88,4.09,1.5,4.43,2.32.07.16.13.32.2.48-.02,5.38,3.85,10.51,9.42,12.47.27.1.55.17.82.24,1.15,1.4,2.33,2.92,3.17,3.88,2.84,3.23,5.67,6.46,8.51,9.69,2.17,2.47,4.34,4.94,6.51,7.42-.17,2.33.3,4.78,1.29,7.09.34.8.72,1.59,1.1,2.37,3.63,4.42,7.06,9,10.05,13.93,2.55,2.55,5.34,4.86,8.33,6.87.34,2.3,1.36,4.45,3.2,5.99,4.34,3.65,8.5,7.5,12.49,11.5,11.98,17.15,27.25,31.84,44.93,42.93,3.54,3.16,7.57,5.75,11.94,7.6.89,1.25,2.05,2.31,3.45,3.08,1.44.79,2.91,1.45,4.42,2,10.44,4.62,21.09,8.49,32.61,9.37,12.59.96,24.68-3.15,34.56-10.82,12.18-9.45,19.31-22.51,26.55-35.57,10.59-9.5,18.43-22.2,22.25-35.93,1.06-1.15,1.83-2.53,2.33-4.01,6-6.16,3.61-19.3-7.2-19.84ZM399.7,415.76c-.59-.55-1.16-1.12-1.75-1.66.59.27,1.18.53,1.77.8.01.31.04.61.08.91-.03-.02-.07-.04-.1-.05ZM497.66,315.65c-.03-.32-.06-.64-.12-.95.35-.05.69-.13,1.04-.22.08.2.16.4.24.59-.4.17-.78.37-1.16.58Z"/><g id="Layer_18"><path class="cls-1" d="M76.4,152.63c6.07,15.57,10.42,31.82,12.74,48.38s2.49,33.21.42,49.66c-1.16,9.19-3.12,18.29-5.77,27.17-.92,3.09,3.9,4.41,4.82,1.33,4.85-16.25,7.25-33.21,7.36-50.16s-2.02-33.91-6.07-50.36c-2.29-9.3-5.21-18.43-8.68-27.35-.49-1.26-1.68-2.13-3.08-1.75-1.2.33-2.24,1.81-1.75,3.08h0Z"/><path class="cls-1" d="M120.3,120.38c11.24,12.87,17.44,29.06,21.39,45.49,1,4.15,1.87,8.33,2.65,12.52.88,4.7,1.38,9.41,1.79,14.17.86,9.99,1.22,20.03.96,30.06-.28,11.2-1.33,22.37-3.29,33.41-.24,1.33.36,2.69,1.75,3.08,1.21.33,2.84-.41,3.08-1.75,3.6-20.32,4.31-41.04,2.76-61.61-.38-5.12-.73-10.32-1.63-15.38-.77-4.34-1.61-8.67-2.58-12.97-1.94-8.59-4.41-17.08-7.82-25.2-3.87-9.21-8.94-17.81-15.52-25.35-.89-1.02-2.63-.91-3.54,0-1.01,1.01-.89,2.52,0,3.54h0Z"/><path class="cls-1" d="M194.42,91.07c4.41,4.85,8.18,10.23,11.46,15.9,1.6,2.76,3.11,5.56,4.34,8.51,1.29,3.1,2.56,6.2,3.82,9.31,4.96,12.28,9.61,24.69,13.65,37.31,4.07,12.7,7.51,25.6,10.12,38.68,2.64,13.18,4.2,26.38,3.39,39.85-.87,14.41-4.25,28.69-9.94,41.96-.53,1.24-.37,2.68.9,3.42,1.05.62,2.89.35,3.42-.9,5.3-12.35,8.74-25.33,10.14-38.7,1.45-13.8.48-27.56-1.99-41.19-4.85-26.79-13.31-52.69-23.35-77.95-2.8-7.04-5.42-14.25-9.09-20.89s-8.14-13.13-13.33-18.84c-2.17-2.39-5.7,1.16-3.54,3.54h0Z"/><path class="cls-1" d="M255.61,81c9.3,13.74,17.32,28.34,24,43.53,6.69,15.2,12,31.03,15.99,47.14s6.69,32.76,7.97,49.43c1.29,16.8,1.2,33.71-.29,50.5-1.49,16.73-4.42,33.32-8.76,49.54-.53,1.99-1.09,3.97-1.66,5.95-.9,3.1,3.92,4.42,4.82,1.33,4.77-16.43,8.06-33.27,9.94-50.27,1.88-16.96,2.32-34.07,1.34-51.11-.98-16.99-3.34-33.93-7.09-50.53-3.71-16.43-8.79-32.56-15.23-48.12s-14.17-30.54-23.28-44.69c-1.13-1.75-2.28-3.49-3.45-5.22-1.79-2.65-6.13-.15-4.32,2.52h0Z"/><path class="cls-1" d="M318.86,89.43c6.43,17.26,12.18,34.77,17.05,52.53s8.86,35.76,11.76,53.95,4.78,37.53,5.14,56.43-.67,37.68-3.49,56.29c-2.74,18.13-7.1,36.02-13.18,53.32-.76,2.16-1.55,4.32-2.36,6.46-.48,1.26.53,2.74,1.75,3.08,1.41.39,2.6-.48,3.08-1.75,6.55-17.3,11.38-35.23,14.52-53.46,3.24-18.77,4.76-37.82,4.76-56.86,0-19.13-1.53-38.23-4.23-57.16s-6.36-36.55-11.02-54.49c-4.67-17.98-10.26-35.72-16.58-53.18-.78-2.16-1.58-4.32-2.38-6.48-.47-1.26-1.69-2.13-3.08-1.75-1.22.33-2.22,1.8-1.75,3.08h0Z"/><path class="cls-1" d="M407.39,134.02c4.11,19.08,7.3,38.37,9.33,57.79,2.03,19.45,2.93,39.04,2.5,58.59-.42,18.89-2.1,37.76-5.29,56.38-3.21,18.75-7.92,37.25-14.31,55.16-6.21,17.43-14.05,34.27-23.44,50.22-1.17,1.99-2.37,3.97-3.59,5.93-1.7,2.74,2.62,5.25,4.32,2.52,9.92-15.96,18.23-32.87,24.97-50.41,6.86-17.85,12-36.34,15.61-55.11s5.76-38.28,6.52-57.6c.77-19.64.16-39.33-1.61-58.9s-4.74-39.35-8.68-58.75c-.48-2.39-.98-4.77-1.5-7.15-.68-3.14-5.5-1.81-4.82,1.33h0Z"/><path class="cls-1" d="M489.59,237.72c.34,16.58.13,33.17-1.13,49.71-1.26,16.52-3.59,32.96-7.45,49.08-3.54,14.79-8.34,29.31-14.37,43.28s-13.36,27.69-21.63,40.64c-8.69,13.6-18.25,26.63-28.37,39.2-1.28,1.59-2.57,3.18-3.87,4.75-.86,1.04-1.02,2.52,0,3.54.88.88,2.67,1.05,3.54,0,10.46-12.73,20.44-25.89,29.55-39.63s16.37-26.66,22.86-40.9c6.42-14.1,11.7-28.71,15.65-43.69,4.26-16.14,6.93-32.68,8.51-49.29,1.59-16.75,2.03-33.59,1.83-50.41-.02-2.09-.06-4.18-.1-6.27-.07-3.21-5.07-3.22-5,0h0Z"/><path class="cls-1" d="M30.43,217.1c7.19,12.71,12.41,26.48,15.27,40.81,2.8,14.06,3.27,28.69,1.07,42.86-1.28,8.27-3.43,16.38-6.37,24.2-.48,1.26.53,2.74,1.75,3.08,1.4.39,2.6-.48,3.08-1.75,5.32-14.15,7.98-29.27,7.9-44.38s-2.77-29.94-7.76-44.05c-2.85-8.06-6.41-15.86-10.62-23.3-1.58-2.8-5.91-.28-4.32,2.52h0Z"/><path class="cls-1" d="M540.45,363.69c-1.66,19.23-4.87,38.32-9.96,56.95s-12.26,37.28-21.55,54.55c-.64,1.19-1.19,2.35-2.15,3.31-1.11,1.11-2.21,2.04-2.8,3.52-.95,2.36-2.1,4.62-3.4,6.8-2.78,4.65-6.14,8.92-9.29,13.32-.79,1.1-.19,2.78.9,3.42,1.26.74,2.63.2,3.42-.9,5-6.96,10.28-13.64,13.36-21.73l-.64,1.1,2.17-2.17c.91-.91,1.5-1.82,2.11-2.95.99-1.81,1.95-3.63,2.89-5.47,1.91-3.72,3.72-7.49,5.44-11.31,3.41-7.57,6.46-15.3,9.15-23.15,5.32-15.52,9.22-31.52,11.91-47.7,1.52-9.15,2.66-18.36,3.45-27.6.12-1.35-1.23-2.5-2.5-2.5-1.45,0-2.38,1.15-2.5,2.5h0Z"/></g><path class="cls-3" d="M64.04,295.03c-2.21,7.08-2.67,14.58-2.44,21.95.08,2.43.23,4.86.43,7.29.08.95.22,1.9.2,2.85,0,.31.19-.35,0-.13-.05.06-.13.48,0,.11.11-.31-.45.57.01.05-.15.17-.31.32-.48.47.48-.42-.06,0-.23.1-.11.06-.22.11-.33.17.08-.04.5-.18.06-.03-.29.1-.58.2-.88.28-.28.07-.56.14-.84.19-.15.03-.29.05-.44.08-.39.07.39-.04,0,0-.66.08-1.32.12-1.98.14-1.26.04-2.52,0-3.78-.11-.54-.04-1.07-.09-1.6-.15-.23-.03-.47-.06-.7-.08-.6-.07.49.08-.17-.02-2.87-.45-5.7-1.12-8.46-2-6.41-2.04-12.3-5.41-17.02-10.08-9.56-9.46-13.56-23.04-15.42-36.2-2.62-18.56,6.21-36.4,15.13-52.05,8.62-15.13,17.41-30.27,27.73-44.31,9.52-12.96,20.23-25.06,31.97-36.05,11.56-10.83,24.14-20.55,37.56-28.97,13.52-8.48,27.87-15.67,42.77-21.38,15.5-5.94,31.6-10.44,47.95-13.31,17.05-2.99,34.43-4.07,51.72-3.38s34.51,3.2,51.29,7.47c16.74,4.26,33.04,10.26,48.49,18,15.42,7.73,30.03,17.15,43.27,28.2,14.03,11.71,26.89,24.92,38.73,38.83,11.95,14.05,22.81,29,32.65,44.6,9.86,15.63,18.69,31.89,26.54,48.62,7.62,16.24,14.16,32.86,19.68,49.93,5.37,16.63,10.37,33.48,17.97,49.27,3.73,7.75,8.13,15.13,13.42,21.93,2.61,3.35,5.48,6.43,8.41,9.5s5.77,6.14,6.73,10.17c1.1,4.59-1.51,9.12-3.46,13.11-2.15,4.41-4.42,8.76-6.8,13.04-4.76,8.57-9.97,16.89-15.61,24.92-5.43,7.73-11.26,15.17-17.46,22.3-.89,1.02-1,2.53,0,3.54.9.9,2.65,1.02,3.54,0,13.15-15.13,24.73-31.63,34.39-49.2,2.4-4.36,4.68-8.79,6.84-13.27,2.3-4.76,4.51-9.61,3.53-15.02-.8-4.45-3.72-8.24-6.68-11.51-2.95-3.25-6.07-6.31-8.83-9.74-10.89-13.51-17.65-29.84-23.26-46.1s-10.66-34.14-17.36-50.74c-7.09-17.55-15.16-34.71-24.31-51.29-9.12-16.54-19.3-32.51-30.58-47.67-11.23-15.1-23.51-29.42-36.92-42.62s-26.94-24.39-42.36-34.09c-14.97-9.42-31.04-17.08-47.71-22.98-16.8-5.95-34.21-10.01-51.88-12.3-17.59-2.28-35.42-2.7-53.09-1.21s-34.72,4.83-51.5,9.84c-15.92,4.76-31.41,11.03-46.13,18.75-14.41,7.56-28.04,16.56-40.72,26.76-12.78,10.28-24.54,21.82-35.14,34.34-10.88,12.86-20.55,26.71-29.01,41.27-9.65,16.63-20.95,33.23-25.32,52.23-1.05,4.57-1.67,9.28-1.66,13.97.01,4.33.65,8.64,1.45,12.89,1.31,7,3.34,13.9,6.51,20.3,2.96,5.98,7.06,11.48,12.23,15.74,5.8,4.78,12.66,7.99,19.94,9.8,4.76,1.18,9.9,1.97,14.8,1.35,2.67-.34,5.62-1.17,7.06-3.67.87-1.5.73-3.06.59-4.72-.22-2.52-.38-5.05-.47-7.59-.25-7.18.1-14.18,2.24-21.04.96-3.08-3.86-4.39-4.82-1.33h0Z"/><path class="cls-3" d="M532.19,480.32c-.86-.86-2.7-1.07-3.54,0-8.13,10.5-18.76,19.1-32.13,21.41-12.33,2.13-24.42-1.74-35.61-6.69-10.99-4.86-21.63-10.52-31.46-17.48-10.55-7.47-20.01-16.37-28.76-25.86-10.85-11.76-20.74-24.39-30.31-37.21-8.87-11.88-17.43-23.99-26.49-35.73-9.43-12.23-19.38-24.15-30.3-35.07-8.75-8.74-18.42-16.55-28.24-24.04-10.61-8.09-21.55-15.75-32.69-23.09-9.28-6.11-18.69-12.03-28.36-17.49-1.73-.98-3.48-1.94-5.24-2.87-2.84-1.51-5.37,2.81-2.52,4.32,8.98,4.76,17.65,10.11,26.21,15.57,11.16,7.13,22.11,14.59,32.79,22.43,10.3,7.56,20.4,15.46,29.77,24.15,10.76,9.97,20.43,21.21,29.58,32.66,9.26,11.58,17.87,23.65,26.65,35.59,7.31,9.93,14.75,19.78,22.59,29.3.09.1.18.21.26.31,2.49,3.02,5.01,6,7.59,8.95,9.08,10.36,18.83,20.14,29.76,28.56,9.55,7.37,19.94,13.5,30.83,18.66,11.76,5.57,24,10.77,37.25,10.61,13.23-.15,25.31-5.89,34.79-14.95,2.75-2.63,5.26-5.5,7.59-8.5.83-1.07,1.04-2.5,0-3.54Z"/><path class="cls-3" d="M219.05,276.21c-20.57-9.98-41.96-18.67-65.01-20.28-5.85-.41-11.73-.37-17.57.09-5.67.45-11.27,1.17-16.69,2.93-5.19,1.69-10.22,3.9-14.92,6.67-4.36,2.57-8.85,4.91-13.28,7.35-10.12,5.56-20.62,11.75-27.28,21.47-.76,1.11-.21,2.77.9,3.42,1.24.72,2.66.22,3.42-.9,3.39-4.94,8-8.85,12.98-12.23.7-.75,1.51-1.42,2.38-1.92.69-.4,1.45-.65,2.16-1,.06-.03.12-.05.18-.08,1.7-1.02,3.41-2,5.11-2.96,4.37-2.46,8.82-4.78,13.19-7.24,4.28-2.41,8.46-4.8,13.07-6.55,10.37-3.94,21.6-4.67,32.61-4.26,10.83.4,21.49,2.44,31.83,5.63,11.88,3.66,23.24,8.75,34.4,14.17,1.21.59,2.7.33,3.42-.9.64-1.1.32-2.83-.9-3.42Z"/><path class="cls-3" d="M81.65,284.66c.69-.73,1.47-1.36,2.32-1.85.69-.4,1.45-.65,2.16-1,.04-.02.08-.04.12-.05-.31-1.25-1.87-1.94-3.04-1.62-1.41.39-1.97,1.74-1.75,3.08.08.48.14.97.18,1.45Z"/><path class="cls-3" d="M201.74,394.03c-.14-.07-.29-.14-.43-.21-.55.72-1.03,1.5-1.38,2.35-.19.45-.33.91-.43,1.38.55-1.23,1.33-2.4,2.25-3.52Z"/><path class="cls-3" d="M381.93,437.76c.58.68,1.18,1.34,1.75,2.02.31.27.59.58.83.91.09-.06.18-.12.26-.18,1.07-.81,1.64-2.16.9-3.42-.62-1.06-2.34-1.72-3.42-.9-.3.23-.61.44-.92.63.13.17.24.35.35.54.08.14.17.26.25.39Z"/></g></svg>